<?xml version="1.0" encoding="UTF-8"?>
<!DOCTYPE svg PUBLIC "-//W3C//DTD SVG 1.1//EN" "http://www.w3.org/Graphics/SVG/1.1/DTD/svg11.dtd">
<svg xmlns="http://www.w3.org/2000/svg" version="1.1" width="4368px" height="2463px" style="shape-rendering:geometricPrecision; text-rendering:geometricPrecision; image-rendering:optimizeQuality; fill-rule:evenodd; clip-rule:evenodd" xmlns:xlink="http://www.w3.org/1999/xlink">
<g><path style="opacity:1" fill="#fefefe" d="M -0.5,-0.5 C 1455.5,-0.5 2911.5,-0.5 4367.5,-0.5C 4367.5,820.5 4367.5,1641.5 4367.5,2462.5C 2911.5,2462.5 1455.5,2462.5 -0.5,2462.5C -0.5,1641.5 -0.5,820.5 -0.5,-0.5 Z"/></g>
<g><path style="opacity:1" fill="#f9ab00" d="M 2496.5,1048.5 C 2496.5,1106.5 2496.5,1164.5 2496.5,1222.5C 2496.67,1370.5 2496.5,1518.5 2496,1666.5C 2494.24,1708.5 2478.08,1743.67 2447.5,1772C 2411.56,1799.96 2371.23,1808.96 2326.5,1799C 2269.46,1781.13 2235.96,1742.63 2226,1683.5C 2225.4,1677.16 2224.73,1670.83 2224,1664.5C 2223.5,1493.5 2223.33,1322.5 2223.5,1151.5C 2223.5,1094.83 2223.5,1038.17 2223.5,981.5C 2223.33,916.499 2223.5,851.499 2224,786.5C 2231.52,733.602 2259.35,695.768 2307.5,673C 2359.73,653.168 2407.39,660.834 2450.5,696C 2477.27,721.379 2492.44,752.545 2496,789.5C 2496.5,875.833 2496.67,962.166 2496.5,1048.5 Z"/></g>
<g><path style="opacity:1" fill="#e8e9eb" d="M 2823.5,666.5 C 2824.23,668.045 2825.56,668.878 2827.5,669C 2823.5,669.667 2823.5,670.333 2827.5,671C 2826.83,740.804 2826.17,810.637 2825.5,880.5C 2827.47,882.545 2827.47,884.212 2825.5,885.5C 2826.24,886.182 2826.91,886.849 2827.5,887.5C 2762.27,955.063 2696.27,1022.06 2629.5,1088.5C 2627.43,1087.87 2625.43,1087.04 2623.5,1086C 2624.5,1085.67 2625.5,1085.33 2626.5,1085C 2625.77,1083.6 2625.27,1082.1 2625,1080.5C 2624.17,1029.5 2624.33,978.497 2625.5,927.5C 2626.33,978.83 2626.83,1030.16 2627,1081.5C 2627.5,1081 2628,1080.5 2628.5,1080C 2627.83,1028.22 2627.16,976.382 2626.5,924.5C 2629.13,922.102 2629.13,919.769 2626.5,917.5C 2662.66,881.174 2698.66,844.674 2734.5,808C 2737.33,805.752 2740.33,803.752 2743.5,802C 2712,769.833 2680.5,737.667 2649,705.5C 2640.83,693.025 2642,681.525 2652.5,671C 2654.72,669.725 2657.05,668.725 2659.5,668C 2714.15,666.593 2768.82,666.093 2823.5,666.5 Z"/></g>
<g><path style="opacity:1" fill="#e6e7e9" d="M 2827.5,887.5 C 2826.91,886.849 2826.24,886.182 2825.5,885.5C 2827.47,884.212 2827.47,882.545 2825.5,880.5C 2826.17,810.637 2826.83,740.804 2827.5,671C 2823.5,670.333 2823.5,669.667 2827.5,669C 2825.56,668.878 2824.23,668.045 2823.5,666.5C 2861.84,666.189 2900.17,666.022 2938.5,666C 2947.24,668.404 2953.07,673.904 2956,682.5C 2956.67,778.5 2956.67,874.5 2956,970.5C 2950.65,983.094 2941.15,988.26 2927.5,986C 2924.55,985.194 2921.89,983.861 2919.5,982C 2888.63,950.631 2857.96,919.131 2827.5,887.5 Z"/></g>
<g><path style="opacity:1" fill="#34a853" d="M 1774.5,667.5 C 1833.03,665.254 1875.2,690.254 1901,742.5C 1919.67,795.138 1909.51,841.305 1870.5,881C 1832.77,912.677 1790.43,920.677 1743.5,905C 1693.86,883.148 1667.52,844.982 1664.5,790.5C 1667.3,735.377 1693.97,696.877 1744.5,675C 1754.4,671.526 1764.4,669.026 1774.5,667.5 Z"/></g>
<g><path style="opacity:1" fill="#4385f4" d="M 3191.5,669.5 C 3242.2,666.768 3281.37,686.435 3309,728.5C 3327.92,763.585 3330.58,799.918 3317,837.5C 3297.29,880.205 3264.12,905.038 3217.5,912C 3167.79,915.227 3128.96,896.393 3101,855.5C 3083.32,825.067 3078.65,792.734 3087,758.5C 3100.38,716.121 3128.21,687.954 3170.5,674C 3177.66,672.621 3184.66,671.121 3191.5,669.5 Z"/></g>
<g><path style="opacity:1" fill="#fdfdfe" d="M 3198.5,716.5 C 3202.18,716.335 3205.85,716.501 3209.5,717C 3226.45,721.994 3243.45,726.994 3260.5,732C 3262.85,732.346 3264.68,733.513 3266,735.5C 3266.67,753.833 3266.67,772.167 3266,790.5C 3262.07,821.538 3247.9,846.705 3223.5,866C 3217.34,870.164 3210.84,873.664 3204,876.5C 3174.97,863.152 3155.63,841.152 3146,810.5C 3144.24,803.246 3142.9,795.913 3142,788.5C 3141.33,770.833 3141.33,753.167 3142,735.5C 3143.21,733.951 3144.71,732.785 3146.5,732C 3164.04,727.12 3181.38,721.953 3198.5,716.5 Z"/></g>
<g><path style="opacity:1" fill="#fefefe" d="M 1759.5,730.5 C 1763.94,730.21 1768.27,730.71 1772.5,732C 1793.17,743.667 1813.83,755.333 1834.5,767C 1845.72,775.727 1848.22,786.56 1842,799.5C 1840.17,802.667 1837.67,805.167 1834.5,807C 1814.09,819.067 1793.42,830.734 1772.5,842C 1757.41,845.541 1747.25,840.041 1742,825.5C 1741.33,799.833 1741.33,774.167 1742,748.5C 1744.68,739.318 1750.52,733.318 1759.5,730.5 Z"/></g>
<g><path style="opacity:1" fill="#679df6" d="M 3198.5,742.5 C 3219.12,742.467 3228.12,752.8 3225.5,773.5C 3229.19,772.971 3232.36,773.971 3235,776.5C 3235.67,792.5 3235.67,808.5 3235,824.5C 3234.5,825 3234,825.5 3233.5,826C 3213.59,826.826 3193.76,826.659 3174,825.5C 3172.36,809.259 3172.03,792.925 3173,776.5C 3173.5,776 3174,775.5 3174.5,775C 3177.43,774.782 3180.26,774.282 3183,773.5C 3180.3,758.889 3185.47,748.556 3198.5,742.5 Z"/></g>
<g><path style="opacity:1" fill="#fbfcfe" d="M 3215.5,759.5 C 3215.5,764.167 3215.5,768.833 3215.5,773.5C 3207.83,773.5 3200.17,773.5 3192.5,773.5C 3189.71,765.072 3191.71,757.906 3198.5,752C 3206.62,749.198 3212.28,751.698 3215.5,759.5 Z"/></g>
<g><path style="opacity:1" fill="#bbd3fb" d="M 3215.5,759.5 C 3216.49,764.305 3216.82,769.305 3216.5,774.5C 3208.32,774.826 3200.32,774.492 3192.5,773.5C 3200.17,773.5 3207.83,773.5 3215.5,773.5C 3215.5,768.833 3215.5,764.167 3215.5,759.5 Z"/></g>
<g><path style="opacity:1" fill="#f9fbfe" d="M 3200.5,786.5 C 3209.16,785.329 3212.99,788.996 3212,797.5C 3211.05,799.455 3209.71,801.122 3208,802.5C 3207.5,805.482 3207.34,808.482 3207.5,811.5C 3205.17,811.5 3202.83,811.5 3200.5,811.5C 3201.38,806.774 3200.22,802.774 3197,799.5C 3194.34,794.084 3195.51,789.75 3200.5,786.5 Z"/></g>
<g><path style="opacity:1" fill="#ebecee" d="M 2626.5,917.5 C 2629.13,919.769 2629.13,922.102 2626.5,924.5C 2627.16,976.382 2627.83,1028.22 2628.5,1080C 2628,1080.5 2627.5,1081 2627,1081.5C 2626.83,1030.16 2626.33,978.83 2625.5,927.5C 2624.33,978.497 2624.17,1029.5 2625,1080.5C 2625.27,1082.1 2625.77,1083.6 2626.5,1085C 2625.5,1085.33 2624.5,1085.67 2623.5,1086C 2625.43,1087.04 2627.43,1087.87 2629.5,1088.5C 2585.86,1133.81 2541.53,1178.47 2496.5,1222.5C 2496.5,1164.5 2496.5,1106.5 2496.5,1048.5C 2539.83,1004.83 2583.17,961.167 2626.5,917.5 Z"/></g>
<g><path style="opacity:1" fill="#f0f1f3" d="M 2223.5,981.5 C 2223.5,1038.17 2223.5,1094.83 2223.5,1151.5C 2195.73,1125.9 2168.4,1099.73 2141.5,1073C 2140.5,1072.33 2139.5,1072.33 2138.5,1073C 2130.3,1081.37 2121.96,1089.54 2113.5,1097.5C 2112.52,1097.19 2111.86,1096.52 2111.5,1095.5C 2111.88,1067.94 2111.88,1039.78 2111.5,1011C 2111.67,985.5 2111.83,960 2112,934.5C 2112.75,933.874 2113.58,933.374 2114.5,933C 2112.88,932.764 2111.88,931.931 2111.5,930.5C 2119.59,925.779 2128.42,923.779 2138,924.5C 2152.37,924.07 2165.21,928.236 2176.5,937C 2192.04,952.038 2207.7,966.871 2223.5,981.5 Z"/></g>
<g><path style="opacity:1" fill="#f2f3f4" d="M 2111.5,930.5 C 2111.88,931.931 2112.88,932.764 2114.5,933C 2113.58,933.374 2112.75,933.874 2112,934.5C 2111.83,960 2111.67,985.5 2111.5,1011C 2111.88,1039.78 2111.88,1067.94 2111.5,1095.5C 2111.86,1096.52 2112.52,1097.19 2113.5,1097.5C 2105.12,1106.88 2096.78,1116.21 2088.5,1125.5C 2048.19,1095.81 2004.19,1088.98 1956.5,1105C 1939.99,1111.41 1925.32,1120.58 1912.5,1132.5C 1911.83,1131.83 1911.17,1131.17 1910.5,1130.5C 1972.6,1066.56 2034.94,1002.73 2097.5,939C 2101.72,935.391 2106.39,932.557 2111.5,930.5 Z"/></g>
<g><path style="opacity:1" fill="#e37400" d="M 2088.5,1125.5 C 2117.89,1150.28 2134.73,1181.94 2139,1220.5C 2139.67,1370.83 2139.67,1521.17 2139,1671.5C 2136.4,1715.55 2117.9,1751.05 2083.5,1778C 2043.18,1804.3 2000.18,1809.63 1954.5,1794C 1909.07,1774.38 1881.24,1740.22 1871,1691.5C 1870,1684.5 1869,1677.5 1868,1670.5C 1867.5,1563.83 1867.33,1457.17 1867.5,1350.5C 1867.33,1306.5 1867.5,1262.5 1868,1218.5C 1872.57,1184.35 1887.41,1155.68 1912.5,1132.5C 1925.32,1120.58 1939.99,1111.41 1956.5,1105C 2004.19,1088.98 2048.19,1095.81 2088.5,1125.5 Z"/></g>
<g><path style="opacity:1" fill="#e13622" d="M 1484.5,1106.5 C 1533.17,1102.1 1572.34,1119.1 1602,1157.5C 1626.37,1195.52 1630.03,1235.52 1613,1277.5C 1585.22,1330.48 1541.39,1353.64 1481.5,1347C 1428.89,1335.06 1396.06,1302.89 1383,1250.5C 1375.23,1186.52 1400.4,1141.02 1458.5,1114C 1467.1,1110.85 1475.77,1108.35 1484.5,1106.5 Z"/></g>
<g><path style="opacity:1" fill="#fbbc06" d="M 2947.5,1110.5 C 3008,1109.64 3049.83,1136.98 3073,1192.5C 3088.26,1245.45 3075.43,1290.28 3034.5,1327C 2997.61,1354.44 2957.27,1360.77 2913.5,1346C 2864.05,1323.96 2838.38,1285.79 2836.5,1231.5C 2838.62,1178.23 2863.95,1140.73 2912.5,1119C 2923.97,1114.72 2935.63,1111.88 2947.5,1110.5 Z"/></g>
<g><path style="opacity:1" fill="#f6f7f8" d="M 1910.5,1130.5 C 1911.17,1131.17 1911.83,1131.83 1912.5,1132.5C 1887.41,1155.68 1872.57,1184.35 1868,1218.5C 1867.5,1262.5 1867.33,1306.5 1867.5,1350.5C 1809.95,1409.22 1752.12,1467.88 1694,1526.5C 1691.87,1529.63 1689.37,1532.46 1686.5,1535C 1687.06,1535.38 1687.39,1535.88 1687.5,1536.5C 1626.23,1520.81 1575.9,1537.48 1536.5,1586.5C 1535.5,1586.53 1534.84,1586.03 1534.5,1585C 1535.81,1583.64 1537.14,1582.31 1538.5,1581C 1536.15,1579.31 1535.99,1577.48 1538,1575.5C 1538.64,1554.42 1538.64,1533.42 1538,1512.5C 1539.67,1510.83 1541.33,1509.17 1543,1507.5C 1544.4,1508.23 1545.9,1508.73 1547.5,1509C 1546.46,1510.62 1545.3,1510.78 1544,1509.5C 1543.5,1510.67 1542.67,1511.5 1541.5,1512C 1543.1,1513.97 1543.27,1515.8 1542,1517.5C 1541.17,1536.84 1541.33,1556.18 1542.5,1575.5C 1543.31,1575.19 1543.97,1574.69 1544.5,1574C 1543.17,1572 1543.17,1570 1544.5,1568C 1546.11,1567.34 1547.27,1567.84 1548,1569.5C 1548.71,1568.03 1549.88,1567.36 1551.5,1567.5C 1551.5,1564.83 1551.5,1562.17 1551.5,1559.5C 1554.71,1560.28 1557.71,1560.11 1560.5,1559C 1558.15,1552.37 1559.98,1550.2 1566,1552.5C 1566.83,1551.67 1567.67,1550.83 1568.5,1550C 1567.58,1547.96 1567.24,1545.79 1567.5,1543.5C 1572.94,1544.05 1578.27,1544.38 1583.5,1544.5C 1584.04,1543.44 1584.04,1542.11 1583.5,1540.5C 1583.71,1539.01 1584.38,1537.84 1585.5,1537C 1584.83,1536.67 1584.17,1536.33 1583.5,1536C 1584.83,1535.33 1586.17,1535.33 1587.5,1536C 1586.66,1537.01 1586.33,1538.18 1586.5,1539.5C 1589.6,1539.59 1589.93,1539.09 1587.5,1538C 1589,1536.21 1590.67,1535.71 1592.5,1536.5C 1593.33,1509.17 1593.83,1481.84 1594,1454.5C 1699.34,1346.33 1804.84,1238.33 1910.5,1130.5 Z"/></g>
<g><path style="opacity:1" fill="#fefefd" d="M 2948.5,1146.5 C 2977.93,1143.29 2998.1,1155.29 3009,1182.5C 3013.78,1203.04 3008.78,1220.71 2994,1235.5C 2986.06,1246.18 2982.89,1258.18 2984.5,1271.5C 2968.17,1271.5 2951.83,1271.5 2935.5,1271.5C 2936.73,1259.11 2933.9,1247.77 2927,1237.5C 2904.75,1214.44 2902.75,1189.78 2921,1163.5C 2928.92,1155.63 2938.08,1149.97 2948.5,1146.5 Z"/></g>
<g><path style="opacity:1" fill="#fef8f6" d="M 1443.5,1168.5 C 1450.2,1168.17 1456.87,1168.5 1463.5,1169.5C 1465.11,1172.38 1466.44,1175.38 1467.5,1178.5C 1497.91,1179.01 1528.25,1179.85 1558.5,1181C 1561.21,1182.86 1562.04,1185.36 1561,1188.5C 1553.47,1203.08 1545.3,1217.24 1536.5,1231C 1535.17,1231.67 1533.83,1232.33 1532.5,1233C 1516.83,1233.33 1501.17,1233.67 1485.5,1234C 1483.25,1237.17 1481.25,1240.5 1479.5,1244C 1502.83,1244.5 1526.16,1244.67 1549.5,1244.5C 1549.5,1248.83 1549.5,1253.17 1549.5,1257.5C 1525.16,1257.67 1500.83,1257.5 1476.5,1257C 1470.59,1255.21 1467.26,1251.21 1466.5,1245C 1468.9,1238.7 1471.73,1232.53 1475,1226.5C 1475.67,1225.17 1475.67,1223.83 1475,1222.5C 1468.5,1208.83 1462,1195.17 1455.5,1181.5C 1451.55,1180.51 1447.55,1180.18 1443.5,1180.5C 1443.5,1176.5 1443.5,1172.5 1443.5,1168.5 Z"/></g>
<g><path style="opacity:1" fill="#e7695a" d="M 1544.5,1193.5 C 1521.17,1192.17 1497.83,1192.17 1474.5,1193.5C 1473.96,1193.44 1473.62,1193.11 1473.5,1192.5C 1497.5,1191.17 1521.5,1191.17 1545.5,1192.5C 1545.38,1193.11 1545.04,1193.44 1544.5,1193.5 Z"/></g>
<g><path style="opacity:1" fill="#e13622" d="M 1544.5,1193.5 C 1539.64,1202.72 1534.64,1211.89 1529.5,1221C 1515.5,1221.67 1501.5,1221.67 1487.5,1221C 1483.02,1211.88 1478.69,1202.72 1474.5,1193.5C 1497.83,1192.17 1521.17,1192.17 1544.5,1193.5 Z"/></g>
<g><path style="opacity:1" fill="#fbc228" d="M 2939.5,1196.5 C 2940.5,1196.41 2941.33,1196.75 2942,1197.5C 2943.31,1203.83 2947.15,1206.33 2953.5,1205C 2954.1,1202.95 2955.43,1201.79 2957.5,1201.5C 2960.3,1202.73 2962.47,1204.73 2964,1207.5C 2964.07,1203.77 2964.9,1200.27 2966.5,1197C 2971.46,1197.14 2975.8,1198.98 2979.5,1202.5C 2980.77,1200.7 2981.43,1198.7 2981.5,1196.5C 2983.1,1196.31 2984.44,1196.81 2985.5,1198C 2983.62,1200.69 2983.28,1203.52 2984.5,1206.5C 2983.68,1207.39 2982.68,1207.72 2981.5,1207.5C 2975.14,1226.65 2971.48,1246.32 2970.5,1266.5C 2969.5,1266.5 2968.5,1266.5 2967.5,1266.5C 2967.88,1245.75 2971.55,1225.58 2978.5,1206C 2975.93,1202.62 2972.6,1200.12 2968.5,1198.5C 2969.03,1210.98 2965.2,1212.65 2957,1203.5C 2956.53,1204.93 2955.7,1206.1 2954.5,1207C 2951.33,1207.25 2948.33,1207.42 2945.5,1207.5C 2952.31,1226.59 2955.98,1246.26 2956.5,1266.5C 2955.17,1266.5 2953.83,1266.5 2952.5,1266.5C 2952.08,1245.23 2948.25,1224.56 2941,1204.5C 2938.75,1203.29 2936.58,1201.96 2934.5,1200.5C 2936.11,1199.76 2937.77,1199.59 2939.5,1200C 2938.32,1198.85 2938.32,1197.69 2939.5,1196.5 Z"/></g>
<g><path style="opacity:1" fill="#fefaf9" d="M 1474.5,1262.5 C 1487.67,1261.86 1492.51,1267.86 1489,1280.5C 1485.56,1285.79 1480.73,1287.63 1474.5,1286C 1467.93,1282.34 1465.76,1276.84 1468,1269.5C 1469.69,1266.64 1471.86,1264.31 1474.5,1262.5 Z"/></g>
<g><path style="opacity:1" fill="#fef9f8" d="M 1533.5,1262.5 C 1545.34,1261.51 1550.51,1266.84 1549,1278.5C 1543.08,1287.73 1536.08,1288.73 1528,1281.5C 1523.99,1273.52 1525.82,1267.18 1533.5,1262.5 Z"/></g>
<g><path style="opacity:1" fill="#fde08d" d="M 2936.5,1277.5 C 2951.99,1276.5 2967.66,1276.17 2983.5,1276.5C 2983.82,1281.69 2983.49,1286.69 2982.5,1291.5C 2982.5,1286.83 2982.5,1282.17 2982.5,1277.5C 2967.17,1277.5 2951.83,1277.5 2936.5,1277.5 Z"/></g>
<g><path style="opacity:1" fill="#fefefe" d="M 2936.5,1277.5 C 2951.83,1277.5 2967.17,1277.5 2982.5,1277.5C 2982.5,1282.17 2982.5,1286.83 2982.5,1291.5C 2982.2,1294.64 2980.53,1296.81 2977.5,1298C 2965.5,1298.67 2953.5,1298.67 2941.5,1298C 2939.27,1296.77 2937.77,1294.94 2937,1292.5C 2936.5,1287.51 2936.33,1282.51 2936.5,1277.5 Z"/></g>
<g><path style="opacity:1" fill="#fffcf5" d="M 2949.5,1303.5 C 2956.51,1303.33 2963.51,1303.5 2970.5,1304C 2972.6,1305.73 2972.93,1307.73 2971.5,1310C 2963.83,1310.67 2956.17,1310.67 2948.5,1310C 2947.09,1307.54 2947.42,1305.37 2949.5,1303.5 Z"/></g>
<g><path style="opacity:1" fill="#e37400" d="M 1687.5,1536.5 C 1732.85,1551.68 1763.01,1582.01 1778,1627.5C 1791.68,1683.1 1777.85,1730.6 1736.5,1770C 1690.37,1805.97 1640.37,1812.3 1586.5,1789C 1538.51,1762.56 1513.17,1721.73 1510.5,1666.5C 1511.17,1637.13 1519.84,1610.46 1536.5,1586.5C 1575.9,1537.48 1626.23,1520.81 1687.5,1536.5 Z"/></g>
<g><path style="opacity:1" fill="#4385f4" d="M 1143.5,1547.5 C 1200.46,1544.22 1242.3,1567.55 1269,1617.5C 1287.99,1663.85 1282.33,1706.85 1252,1746.5C 1213.03,1787.92 1166.53,1799.42 1112.5,1781C 1056.86,1753.91 1032.36,1709.41 1039,1647.5C 1052.24,1591.43 1087.07,1558.09 1143.5,1547.5 Z"/></g>
<g><path style="opacity:1" fill="#e13622" d="M 2710.5,1550.5 C 2761.8,1548.06 2800.96,1568.39 2828,1611.5C 2848.95,1652.3 2848.62,1692.97 2827,1733.5C 2794.16,1782.46 2748.66,1800.96 2690.5,1789C 2640.24,1772.74 2610.74,1738.57 2602,1686.5C 2597.62,1634.77 2617.12,1594.93 2660.5,1567C 2676.11,1557.8 2692.78,1552.3 2710.5,1550.5 Z"/></g>
<g><path style="opacity:1" fill="#fef9f8" d="M 2635.5,1714.5 C 2635.5,1711.17 2635.5,1707.83 2635.5,1704.5C 2657.5,1704.5 2679.5,1704.5 2701.5,1704.5C 2702.63,1706.13 2703.96,1707.63 2705.5,1709C 2713.5,1709.67 2721.5,1709.67 2729.5,1709C 2731.61,1707.81 2733.27,1706.14 2734.5,1704C 2746.51,1703.83 2758.51,1703.33 2770.5,1702.5C 2729.84,1701.5 2689.17,1701.17 2648.5,1701.5C 2648.33,1669.83 2648.5,1638.16 2649,1606.5C 2650.5,1603.67 2652.67,1601.5 2655.5,1600C 2697.56,1599.02 2739.56,1599.35 2781.5,1601C 2783.38,1602.54 2784.88,1604.38 2786,1606.5C 2786.5,1628.83 2786.67,1651.16 2786.5,1673.5C 2792.84,1673.33 2799.18,1673.5 2805.5,1674C 2807.67,1674.83 2809.17,1676.33 2810,1678.5C 2810.67,1697.17 2810.67,1715.83 2810,1734.5C 2809.17,1736.67 2807.67,1738.17 2805.5,1739C 2795.17,1739.67 2784.83,1739.67 2774.5,1739C 2773.33,1737.83 2772.17,1736.67 2771,1735.5C 2770.5,1729.18 2770.33,1722.84 2770.5,1716.5C 2725.83,1716.67 2681.17,1716.5 2636.5,1716C 2635.94,1715.62 2635.61,1715.12 2635.5,1714.5 Z"/></g>
<g><path style="opacity:1" fill="#ed675c" d="M 2777.5,1613.5 C 2777.82,1633.58 2777.49,1653.58 2776.5,1673.5C 2774.28,1674.2 2772.45,1675.54 2771,1677.5C 2770.5,1682.82 2770.33,1688.16 2770.5,1693.5C 2732.83,1693.5 2695.17,1693.5 2657.5,1693.5C 2657.33,1666.16 2657.5,1638.83 2658,1611.5C 2658.83,1610.67 2659.67,1609.83 2660.5,1609C 2697.75,1607.35 2735.08,1607.01 2772.5,1608C 2775.08,1609.08 2776.75,1610.91 2777.5,1613.5 Z"/></g>
<g><path style="opacity:1" fill="#fdfdfe" d="M 1083.5,1610.5 C 1134.17,1610.33 1184.83,1610.5 1235.5,1611C 1238.06,1611.69 1239.89,1613.19 1241,1615.5C 1241.67,1652.17 1241.67,1688.83 1241,1725.5C 1240.31,1728.06 1238.81,1729.89 1236.5,1731C 1211.33,1731.17 1186.17,1731.33 1161,1731.5C 1134.77,1731.65 1108.61,1731.15 1082.5,1730C 1080.95,1728.79 1079.78,1727.29 1079,1725.5C 1078.33,1688.83 1078.33,1652.17 1079,1615.5C 1080.02,1613.31 1081.52,1611.65 1083.5,1610.5 Z"/></g>
<g><path style="opacity:1" fill="#f28e86" d="M 2777.5,1613.5 C 2778.17,1623.33 2778.5,1633.33 2778.5,1643.5C 2778.5,1653.86 2777.83,1663.86 2776.5,1673.5C 2777.49,1653.58 2777.82,1633.58 2777.5,1613.5 Z"/></g>
<g><path style="opacity:1" fill="#fef3f1" d="M 2708.5,1616.5 C 2730.47,1613.72 2744.97,1622.72 2752,1643.5C 2754,1664.82 2744.84,1678.65 2724.5,1685C 2703.57,1687.3 2690.07,1678.46 2684,1658.5C 2681.1,1637.96 2689.26,1623.96 2708.5,1616.5 Z"/></g>
<g><path style="opacity:1" fill="#ef6d62" d="M 2719.5,1620.5 C 2723.29,1622.45 2726.29,1625.29 2728.5,1629C 2725.57,1629.95 2722.57,1630.45 2719.5,1630.5C 2719.5,1627.17 2719.5,1623.83 2719.5,1620.5 Z"/></g>
<g><path style="opacity:1" fill="#f0776c" d="M 2707.5,1620.5 C 2708.53,1620.9 2708.69,1621.56 2708,1622.5C 2706.12,1624.04 2704.62,1625.88 2703.5,1628C 2701.58,1628.22 2699.91,1627.55 2698.5,1626C 2701.56,1624.14 2704.56,1622.31 2707.5,1620.5 Z"/></g>
<g><path style="opacity:1" fill="#ef7065" d="M 2727.5,1622.5 C 2730.32,1622.2 2732.98,1623.2 2735.5,1625.5C 2734.65,1627.28 2733.32,1627.78 2731.5,1627C 2730.27,1625.33 2728.93,1623.83 2727.5,1622.5 Z"/></g>
<g><path style="opacity:1" fill="#ef6d61" d="M 2714.5,1620.5 C 2715.48,1623.62 2715.81,1626.96 2715.5,1630.5C 2713.14,1630.66 2710.81,1630.5 2708.5,1630C 2708.04,1629.59 2707.71,1629.09 2707.5,1628.5C 2709.17,1625.17 2711.5,1622.5 2714.5,1620.5 Z"/></g>
<g><path style="opacity:1" fill="#4486f4" d="M 1099.5,1628.5 C 1123.84,1628.33 1148.17,1628.5 1172.5,1629C 1173.33,1629.83 1174.17,1630.67 1175,1631.5C 1175.82,1648.21 1175.65,1664.88 1174.5,1681.5C 1173.97,1682.19 1173.31,1682.69 1172.5,1683C 1148.17,1683.67 1123.83,1683.67 1099.5,1683C 1098.3,1682.1 1097.47,1680.93 1097,1679.5C 1096.33,1663.83 1096.33,1648.17 1097,1632.5C 1097.66,1631.02 1098.5,1629.68 1099.5,1628.5 Z"/></g>
<g><path style="opacity:1" fill="#f7fafe" d="M 1165.5,1635.5 C 1165.5,1648.5 1165.5,1661.5 1165.5,1674.5C 1163.17,1674.5 1160.83,1674.5 1158.5,1674.5C 1158.56,1670.87 1157.56,1670.7 1155.5,1674C 1145.2,1676.21 1140.2,1672.04 1140.5,1661.5C 1139.75,1651.09 1144.41,1646.25 1154.5,1647C 1156.87,1649.41 1157.87,1648.91 1157.5,1645.5C 1158.48,1642.38 1158.81,1639.04 1158.5,1635.5C 1160.83,1635.5 1163.17,1635.5 1165.5,1635.5 Z"/></g>
<g><path style="opacity:1" fill="#ed685d" d="M 2715.5,1648.5 C 2710.83,1648.5 2706.17,1648.5 2701.5,1648.5C 2701.5,1646.83 2701.5,1645.17 2701.5,1643.5C 2701.6,1640.04 2702.6,1636.88 2704.5,1634C 2708.17,1633.72 2711.84,1633.89 2715.5,1634.5C 2715.5,1639.17 2715.5,1643.83 2715.5,1648.5 Z"/></g>
<g><path style="opacity:1" fill="#ed685d" d="M 2728.5,1632.5 C 2729.5,1632.41 2730.33,1632.75 2731,1633.5C 2733.27,1638.25 2734.44,1643.25 2734.5,1648.5C 2729.5,1648.5 2724.5,1648.5 2719.5,1648.5C 2719.17,1643.79 2719.51,1639.12 2720.5,1634.5C 2723.31,1633.92 2725.98,1633.25 2728.5,1632.5 Z"/></g>
<g><path style="opacity:1" fill="#f7fafe" d="M 1116.5,1637.5 C 1119.71,1637.01 1122.54,1637.68 1125,1639.5C 1129.27,1650.79 1133.43,1662.13 1137.5,1673.5C 1130.75,1675.99 1127.42,1673.65 1127.5,1666.5C 1122.82,1666.33 1118.15,1666.5 1113.5,1667C 1112.13,1669.3 1111.47,1671.8 1111.5,1674.5C 1108.48,1674.66 1105.48,1674.5 1102.5,1674C 1107.27,1661.86 1111.93,1649.69 1116.5,1637.5 Z"/></g>
<g><path style="opacity:1" fill="#8eb5f9" d="M 1165.5,1635.5 C 1163.17,1635.5 1160.83,1635.5 1158.5,1635.5C 1158.81,1639.04 1158.48,1642.38 1157.5,1645.5C 1157.5,1641.83 1157.5,1638.17 1157.5,1634.5C 1160.39,1634.19 1163.05,1634.53 1165.5,1635.5 Z"/></g>
<g><path style="opacity:1" fill="#ee695e" d="M 2694.5,1629.5 C 2697.02,1629.76 2699.35,1630.59 2701.5,1632C 2698.42,1637.06 2697.09,1642.56 2697.5,1648.5C 2693.83,1648.5 2690.17,1648.5 2686.5,1648.5C 2687.25,1641.34 2689.91,1635.01 2694.5,1629.5 Z"/></g>
<g><path style="opacity:1" fill="#ee695e" d="M 2738.5,1628.5 C 2745.01,1633.52 2748.34,1640.18 2748.5,1648.5C 2745.17,1648.5 2741.83,1648.5 2738.5,1648.5C 2738.02,1642.95 2736.69,1637.62 2734.5,1632.5C 2735.44,1630.71 2736.77,1629.38 2738.5,1628.5 Z"/></g>
<g><path style="opacity:1" fill="#f6b0aa" d="M 2701.5,1643.5 C 2701.5,1645.17 2701.5,1646.83 2701.5,1648.5C 2706.17,1648.5 2710.83,1648.5 2715.5,1648.5C 2710.69,1649.49 2705.69,1649.82 2700.5,1649.5C 2700.21,1647.26 2700.54,1645.26 2701.5,1643.5 Z"/></g>
<g><path style="opacity:1" fill="#4988f4" d="M 1150.5,1652.5 C 1152.59,1652.32 1154.59,1652.65 1156.5,1653.5C 1157.8,1658.38 1157.8,1663.22 1156.5,1668C 1154.17,1668.67 1151.83,1668.67 1149.5,1668C 1146.64,1662.59 1146.97,1657.43 1150.5,1652.5 Z"/></g>
<g><path style="opacity:1" fill="#ed685d" d="M 2700.5,1652.5 C 2705.5,1652.5 2710.5,1652.5 2715.5,1652.5C 2715.5,1657.5 2715.5,1662.5 2715.5,1667.5C 2711.7,1667.78 2708.04,1667.78 2704.5,1667.5C 2702.41,1662.69 2701.07,1657.69 2700.5,1652.5 Z"/></g>
<g><path style="opacity:1" fill="#4f8bf4" d="M 1119.5,1647.5 C 1122.12,1651.34 1123.79,1655.68 1124.5,1660.5C 1121.83,1660.5 1119.17,1660.5 1116.5,1660.5C 1116.88,1656.02 1117.88,1651.69 1119.5,1647.5 Z"/></g>
<g><path style="opacity:1" fill="#ed685d" d="M 2719.5,1652.5 C 2724.5,1652.5 2729.5,1652.5 2734.5,1652.5C 2734.12,1657.68 2732.95,1662.68 2731,1667.5C 2727.32,1667.72 2723.48,1667.72 2719.5,1667.5C 2719.5,1662.5 2719.5,1657.5 2719.5,1652.5 Z"/></g>
<g><path style="opacity:1" fill="#ee6a5f" d="M 2686.5,1652.5 C 2690.17,1652.5 2693.83,1652.5 2697.5,1652.5C 2697.42,1658.5 2698.75,1664.17 2701.5,1669.5C 2699.89,1670.89 2698.06,1671.89 2696,1672.5C 2689.92,1667.33 2686.75,1660.66 2686.5,1652.5 Z"/></g>
<g><path style="opacity:1" fill="#ee6a5f" d="M 2737.5,1652.5 C 2741.17,1652.5 2744.83,1652.5 2748.5,1652.5C 2748.2,1660.42 2745.2,1667.09 2739.5,1672.5C 2737.45,1671.82 2735.79,1670.65 2734.5,1669C 2736.7,1663.71 2737.7,1658.21 2737.5,1652.5 Z"/></g>
<g><path style="opacity:1" fill="#ee6b60" d="M 2710.5,1670.5 C 2712.17,1670.5 2713.83,1670.5 2715.5,1670.5C 2716.35,1682.96 2713.68,1683.63 2707.5,1672.5C 2708.6,1671.82 2709.6,1671.16 2710.5,1670.5 Z"/></g>
<g><path style="opacity:1" fill="#ee6a5f" d="M 2719.5,1670.5 C 2722.52,1670.8 2725.52,1671.3 2728.5,1672C 2726.04,1675.46 2723.2,1678.63 2720,1681.5C 2719.5,1677.85 2719.33,1674.18 2719.5,1670.5 Z"/></g>
<g><path style="opacity:1" fill="#ef7267" d="M 2701.5,1673.5 C 2704.35,1674.97 2706.69,1677.14 2708.5,1680C 2705.02,1679.6 2702.02,1678.1 2699.5,1675.5C 2700.24,1674.82 2700.91,1674.15 2701.5,1673.5 Z"/></g>
<g><path style="opacity:1" fill="#ef7469" d="M 2731.5,1673.5 C 2733.48,1673.38 2735.15,1674.05 2736.5,1675.5C 2733.44,1677.87 2730.11,1679.37 2726.5,1680C 2728.77,1678.24 2730.43,1676.08 2731.5,1673.5 Z"/></g>
<g><path style="opacity:1" fill="#ed695e" d="M 2776.5,1682.5 C 2785.83,1682.5 2795.17,1682.5 2804.5,1682.5C 2804.5,1696.5 2804.5,1710.5 2804.5,1724.5C 2795.17,1724.5 2785.83,1724.5 2776.5,1724.5C 2776.5,1710.5 2776.5,1696.5 2776.5,1682.5 Z"/></g>
<g><path style="opacity:1" fill="#f7cbc5" d="M 2701.5,1704.5 C 2679.5,1704.5 2657.5,1704.5 2635.5,1704.5C 2635.5,1707.83 2635.5,1711.17 2635.5,1714.5C 2634.52,1711.04 2634.19,1707.37 2634.5,1703.5C 2657.01,1703.17 2679.34,1703.5 2701.5,1704.5 Z"/></g>
<g><path style="opacity:1" fill="#e3432d" d="M 2788.5,1727.5 C 2794.64,1728.03 2795.98,1730.86 2792.5,1736C 2787.5,1736.66 2785.67,1734.5 2787,1729.5C 2787.72,1728.96 2788.22,1728.29 2788.5,1727.5 Z"/></g>
</svg>
