<?xml version="1.0" encoding="UTF-8"?>
<!DOCTYPE svg PUBLIC "-//W3C//DTD SVG 1.1//EN" "http://www.w3.org/Graphics/SVG/1.1/DTD/svg11.dtd">
<svg xmlns="http://www.w3.org/2000/svg" version="1.1" width="590px" height="288px" style="shape-rendering:geometricPrecision; text-rendering:geometricPrecision; image-rendering:optimizeQuality; fill-rule:evenodd; clip-rule:evenodd" xmlns:xlink="http://www.w3.org/1999/xlink">
<g><path style="opacity:1" fill="#fefefe" d="M -0.5,-0.5 C 196.167,-0.5 392.833,-0.5 589.5,-0.5C 589.5,95.5 589.5,191.5 589.5,287.5C 392.833,287.5 196.167,287.5 -0.5,287.5C -0.5,191.5 -0.5,95.5 -0.5,-0.5 Z"/></g>
<g><path style="opacity:1" fill="#141516" d="M 222.5,104.5 C 223.043,104.44 223.376,104.107 223.5,103.5C 219.016,102.189 214.683,102.189 210.5,103.5C 209.688,104.993 208.355,105.66 206.5,105.5C 202.293,104.382 201.627,102.215 204.5,99C 206.989,98.0589 208.989,98.5589 210.5,100.5C 215.348,101.814 220.348,101.814 225.5,100.5C 227.267,97.2302 229.6,94.3968 232.5,92C 229.183,91.5017 225.85,91.335 222.5,91.5C 215.173,90.8499 208.173,91.8499 201.5,94.5C 197.165,92.9933 196.498,90.4933 199.5,87C 207.792,89.0618 216.459,89.8952 225.5,89.5C 228.85,89.665 232.183,89.4983 235.5,89C 238.684,86.2476 242.018,83.7476 245.5,81.5C 246.289,81.2172 246.956,80.7172 247.5,80C 229.329,79.1713 211.329,79.338 193.5,80.5C 189.417,82.7731 187.417,86.2731 187.5,91C 180.445,91.6381 179.112,89.3047 183.5,84C 187.676,83.974 190.676,82.1407 192.5,78.5C 212.169,78.6666 231.836,78.5 251.5,78C 271.719,67.5896 292.385,66.7563 313.5,75.5C 313,75.8333 312.5,76.1667 312,76.5C 273.8,64.5641 243.8,75.2308 222,108.5C 221.421,107.072 221.588,105.738 222.5,104.5 Z"/></g>
<g><path style="opacity:1" fill="#c5c5c5" d="M 183.5,85.5 C 187.161,85.3501 188.161,86.8501 186.5,90C 182.707,90.4866 181.707,88.9866 183.5,85.5 Z"/></g>
<g><path style="opacity:1" fill="#9ec8ea" d="M 233.5,80.5 C 237.702,80.1832 241.702,80.5166 245.5,81.5C 242.018,83.7476 238.684,86.2476 235.5,89C 232.183,89.4983 228.85,89.665 225.5,89.5C 227.459,85.8739 230.126,82.8739 233.5,80.5 Z"/></g>
<g><path style="opacity:1" fill="#9fa4a9" d="M 193.5,80.5 C 211.329,79.338 229.329,79.1713 247.5,80C 246.956,80.7172 246.289,81.2172 245.5,81.5C 241.702,80.5166 237.702,80.1832 233.5,80.5C 220.167,80.5 206.833,80.5 193.5,80.5 Z"/></g>
<g><path style="opacity:1" fill="#dfdfdf" d="M 200.5,88.5 C 203.166,88.0658 204.333,89.0658 204,91.5C 200.403,93.0661 199.237,92.0661 200.5,88.5 Z"/></g>
<g><path style="opacity:1" fill="#9cc6e7" d="M 347.5,92.5 C 343.543,92.9916 339.877,92.3249 336.5,90.5C 336.167,90.8333 335.833,91.1667 335.5,91.5C 356.742,114.542 361.742,140.709 350.5,170C 351.449,170.617 352.282,170.451 353,169.5C 359.136,154.216 359.97,138.716 355.5,123C 358.146,122.503 360.813,122.336 363.5,122.5C 368.762,146.271 364.762,168.271 351.5,188.5C 348.287,188.81 345.287,188.477 342.5,187.5C 343.122,186.373 343.955,185.373 345,184.5C 345.667,183.5 345.667,182.5 345,181.5C 341.441,188.188 335.941,190.355 328.5,188C 344.112,172.417 350.612,153.584 348,131.5C 339.541,97.8681 318.041,80.2014 283.5,78.5C 256.113,79.7273 236.613,92.7273 225,117.5C 215.828,143.83 220.661,167.163 239.5,187.5C 237.052,188.473 234.385,188.806 231.5,188.5C 222.561,178.953 217.061,167.619 215,154.5C 214.058,148.197 213.391,141.863 213,135.5C 210.544,137.321 207.711,137.988 204.5,137.5C 205.209,125.374 208.543,114.041 214.5,103.5C 217.385,103.194 220.052,103.527 222.5,104.5C 221.588,105.738 221.421,107.072 222,108.5C 243.8,75.2308 273.8,64.5641 312,76.5C 312.5,76.1667 313,75.8333 313.5,75.5C 292.385,66.7563 271.719,67.5896 251.5,78C 231.836,78.5 212.169,78.6666 192.5,78.5C 207.661,77.6686 222.995,77.1686 238.5,77C 262.537,61.1268 288.204,58.1268 315.5,68C 328.685,73.069 339.352,81.2357 347.5,92.5 Z"/></g>
<g><path style="opacity:1" fill="#141a1f" d="M 329.5,82.5 C 335.488,82.664 336.821,85.164 333.5,90C 327.412,90.0841 326.079,87.5841 329.5,82.5 Z"/></g>
<g><path style="opacity:1" fill="#18a1d9" d="M 329.5,84.5 C 331.346,84.2222 332.68,84.8888 333.5,86.5C 332.68,88.1112 331.346,88.7778 329.5,88.5C 329.5,87.1667 329.5,85.8333 329.5,84.5 Z"/></g>
<g><path style="opacity:1" fill="#161c20" d="M 318.5,75.5 C 324.704,75.3137 326.037,77.8137 322.5,83C 316.403,83.1475 315.07,80.6475 318.5,75.5 Z"/></g>
<g><path style="opacity:1" fill="#199ed5" d="M 318.5,77.5 C 319.833,77.5 321.167,77.5 322.5,77.5C 322.5,78.8333 322.5,80.1667 322.5,81.5C 319.5,81.8333 318.167,80.5 318.5,77.5 Z"/></g>
<g><path style="opacity:1" fill="#98c0df" d="M 222.5,91.5 C 225.85,91.335 229.183,91.5017 232.5,92C 229.6,94.3968 227.267,97.2302 225.5,100.5C 220.348,101.814 215.348,101.814 210.5,100.5C 212.527,100.662 214.527,100.495 216.5,100C 218.72,97.2872 220.72,94.4539 222.5,91.5 Z"/></g>
<g><path style="opacity:1" fill="#9ec8ea" d="M 350.5,94.5 C 353.088,98.674 355.421,103.007 357.5,107.5C 354.813,107.664 352.146,107.497 349.5,107C 346.885,102.717 343.885,98.7171 340.5,95C 343.817,94.5017 347.15,94.335 350.5,94.5 Z"/></g>
<g><path style="opacity:1" fill="#e0e0e0" d="M 205.5,99.5 C 208.956,100.536 209.29,102.203 206.5,104.5C 204.296,103.218 203.962,101.551 205.5,99.5 Z"/></g>
<g><path style="opacity:1" fill="#667684" d="M 210.5,103.5 C 214.683,102.189 219.016,102.189 223.5,103.5C 223.376,104.107 223.043,104.44 222.5,104.5C 220.052,103.527 217.385,103.194 214.5,103.5C 213.167,103.5 211.833,103.5 210.5,103.5 Z"/></g>
<g><path style="opacity:1" fill="#1e1f21" d="M 350.5,94.5 C 347.15,94.335 343.817,94.5017 340.5,95C 343.885,98.7171 346.885,102.717 349.5,107C 352.146,107.497 354.813,107.664 357.5,107.5C 362.179,107.666 366.845,107.499 371.5,107C 372.667,105.833 373.833,104.667 375,103.5C 374.929,97.552 377.596,95.552 383,97.5C 384.07,103.097 381.904,105.264 376.5,104C 374.833,105.667 373.167,107.333 371.5,109C 367.179,109.499 362.846,109.666 358.5,109.5C 355.813,109.336 353.146,109.503 350.5,110C 351.167,111 351.833,112 352.5,113C 355.146,113.497 357.813,113.664 360.5,113.5C 366.842,113.666 373.175,113.5 379.5,113C 381.85,109.949 384.35,109.783 387,112.5C 388.135,115.901 386.968,117.901 383.5,118.5C 381.886,118.197 380.552,117.53 379.5,116.5C 371.016,115.507 362.349,115.174 353.5,115.5C 353.421,116.93 353.754,118.264 354.5,119.5C 359.456,120.494 364.456,120.827 369.5,120.5C 371.296,121.793 372.963,123.293 374.5,125C 376.888,125.303 379.055,126.137 381,127.5C 381.664,132.496 379.498,134.33 374.5,133C 374.213,125.879 370.547,122.379 363.5,122.5C 360.813,122.336 358.146,122.503 355.5,123C 359.97,138.716 359.136,154.216 353,169.5C 352.282,170.451 351.449,170.617 350.5,170C 361.742,140.709 356.742,114.542 335.5,91.5C 335.833,91.1667 336.167,90.8333 336.5,90.5C 339.877,92.3249 343.543,92.9916 347.5,92.5C 351.182,92.6653 354.848,92.4986 358.5,92C 364.333,86.1667 370.167,80.3333 376,74.5C 375.661,69.326 377.827,67.326 382.5,68.5C 384.386,73.3286 382.719,75.8286 377.5,76C 371.5,82 365.5,88 359.5,94C 356.518,94.498 353.518,94.6646 350.5,94.5 Z"/></g>
<g><path style="opacity:1" fill="#e1e1e1" d="M 377.5,98.5 C 378.833,98.5 380.167,98.5 381.5,98.5C 381.5,99.8333 381.5,101.167 381.5,102.5C 378.5,102.833 377.167,101.5 377.5,98.5 Z"/></g>
<g><path style="opacity:1" fill="#dddddd" d="M 378.5,69.5 C 380.346,69.2222 381.68,69.8888 382.5,71.5C 381.68,73.1112 380.346,73.7778 378.5,73.5C 378.5,72.1667 378.5,70.8333 378.5,69.5 Z"/></g>
<g><path style="opacity:1" fill="#a3cff1" d="M 358.5,109.5 C 359.6,110.605 360.267,111.938 360.5,113.5C 357.813,113.664 355.146,113.497 352.5,113C 351.833,112 351.167,111 350.5,110C 353.146,109.503 355.813,109.336 358.5,109.5 Z"/></g>
<g><path style="opacity:1" fill="#13181c" d="M 216.5,110.5 C 222.488,110.664 223.821,113.164 220.5,118C 214.403,118.147 213.07,115.647 216.5,110.5 Z"/></g>
<g><path style="opacity:1" fill="#19a0d8" d="M 217.5,112.5 C 218.5,112.5 219.5,112.5 220.5,112.5C 220.5,113.833 220.5,115.167 220.5,116.5C 217.046,116.733 216.046,115.4 217.5,112.5 Z"/></g>
<g><path style="opacity:1" fill="#ececec" d="M 382.5,112.5 C 384.912,112.694 385.912,114.027 385.5,116.5C 384.167,116.5 382.833,116.5 381.5,116.5C 381.433,115.041 381.766,113.708 382.5,112.5 Z"/></g>
<g><path style="opacity:1" fill="#97adc0" d="M 379.5,116.5 C 373.491,116.334 367.491,116.501 361.5,117C 363.887,118.892 366.553,120.058 369.5,120.5C 364.456,120.827 359.456,120.494 354.5,119.5C 353.754,118.264 353.421,116.93 353.5,115.5C 362.349,115.174 371.016,115.507 379.5,116.5 Z"/></g>
<g><path style="opacity:1" fill="#141a1e" d="M 213.5,122.5 C 219.488,122.664 220.821,125.164 217.5,130C 211.403,130.147 210.07,127.647 213.5,122.5 Z"/></g>
<g><path style="opacity:1" fill="#18a1d9" d="M 213.5,124.5 C 215.346,124.222 216.68,124.889 217.5,126.5C 216.68,128.111 215.346,128.778 213.5,128.5C 213.5,127.167 213.5,125.833 213.5,124.5 Z"/></g>
<g><path style="opacity:1" fill="#eeeeee" d="M 375.5,127.5 C 377.346,127.222 378.68,127.889 379.5,129.5C 378.68,131.111 377.346,131.778 375.5,131.5C 375.5,130.167 375.5,128.833 375.5,127.5 Z"/></g>
<g><path style="opacity:1" fill="#9dc8eb" d="M 204.5,139.5 C 206.833,139.5 209.167,139.5 211.5,139.5C 211.5,141.833 211.5,144.167 211.5,146.5C 209.167,146.5 206.833,146.5 204.5,146.5C 204.5,144.167 204.5,141.833 204.5,139.5 Z"/></g>
<g><path style="opacity:1" fill="#1d1d1d" d="M 377.5,142.5 C 383.996,143.014 385.996,146.347 383.5,152.5C 382.928,150.083 381.928,147.916 380.5,146C 379.216,145.316 378.049,145.483 377,146.5C 376.5,153.158 376.334,159.825 376.5,166.5C 383.167,167.167 383.167,167.833 376.5,168.5C 375.5,177.833 374.5,177.833 373.5,168.5C 366.833,167.833 366.833,167.167 373.5,166.5C 373.334,159.825 373.5,153.158 374,146.5C 374.69,144.65 375.856,143.316 377.5,142.5 Z"/></g>
<g><path style="opacity:1" fill="#2d343a" d="M 211.5,139.5 C 212.473,141.948 212.806,144.615 212.5,147.5C 202.652,147.827 192.986,147.494 183.5,146.5C 190.5,146.5 197.5,146.5 204.5,146.5C 206.833,146.5 209.167,146.5 211.5,146.5C 211.5,144.167 211.5,141.833 211.5,139.5 Z"/></g>
<g><path style="opacity:1" fill="#14181b" d="M 342.5,187.5 C 341.957,187.56 341.624,187.893 341.5,188.5C 346.652,189.814 351.652,189.814 356.5,188.5C 358.966,187.594 359.633,186.094 358.5,184C 360.005,179.497 362.505,178.664 366,181.5C 366.667,183.167 366.667,184.833 366,186.5C 362.684,186.985 359.851,188.318 357.5,190.5C 351.491,190.334 345.491,190.501 339.5,191C 317.463,213.342 291.463,220.009 261.5,211C 282.872,216.446 303.205,213.78 322.5,203C 327.628,199.703 332.294,195.87 336.5,191.5C 332.878,190.341 329.211,190.175 325.5,191C 303.731,207.13 280.398,209.796 255.5,199C 250.328,194.95 244.662,192.117 238.5,190.5C 236.833,190.833 235.167,191.167 233.5,191.5C 238.627,196.561 244.293,200.894 250.5,204.5C 251.833,205.167 251.833,205.833 250.5,206.5C 243.119,202.289 236.452,197.123 230.5,191C 226.642,190.19 222.976,190.357 219.5,191.5C 216.744,192.676 215.744,194.509 216.5,197C 214.927,200.452 212.427,201.286 209,199.5C 207.524,194.638 209.357,192.471 214.5,193C 215.705,191.624 217.038,190.458 218.5,189.5C 221.898,189.82 225.232,189.487 228.5,188.5C 228.376,187.893 228.043,187.56 227.5,187.5C 218.778,176.01 213.778,163.01 212.5,148.5C 209.833,148.5 207.167,148.5 204.5,148.5C 197.468,148.17 190.468,148.503 183.5,149.5C 181.901,151.729 179.901,152.062 177.5,150.5C 175.788,147.203 176.621,144.87 180,143.5C 181.642,143.978 182.809,144.978 183.5,146.5C 192.986,147.494 202.652,147.827 212.5,147.5C 212.806,144.615 212.473,141.948 211.5,139.5C 209.167,139.5 206.833,139.5 204.5,139.5C 198.048,138.821 192.048,139.821 186.5,142.5C 182.733,141.59 181.733,139.424 183.5,136C 185.728,135.18 187.728,135.513 189.5,137C 194.489,137.499 199.489,137.666 204.5,137.5C 207.711,137.988 210.544,137.321 213,135.5C 213.391,141.863 214.058,148.197 215,154.5C 217.061,167.619 222.561,178.953 231.5,188.5C 234.355,189.803 237.355,189.803 240.5,188.5C 240.376,187.893 240.043,187.56 239.5,187.5C 220.661,167.163 215.828,143.83 225,117.5C 236.613,92.7273 256.113,79.7273 283.5,78.5C 318.041,80.2014 339.541,97.8681 348,131.5C 350.612,153.584 344.112,172.417 328.5,188C 335.941,190.355 341.441,188.188 345,181.5C 345.667,182.5 345.667,183.5 345,184.5C 343.955,185.373 343.122,186.373 342.5,187.5 Z"/></g>
<g><path style="opacity:1" fill="#dedfe0" d="M 234.5,146.5 C 237.957,146.667 238.29,147.667 235.5,149.5C 234.614,148.675 234.281,147.675 234.5,146.5 Z"/></g>
<g><path style="opacity:1" fill="#d6d6d6" d="M 178.5,145.5 C 180.346,145.222 181.68,145.889 182.5,147.5C 181.68,149.111 180.346,149.778 178.5,149.5C 178.5,148.167 178.5,146.833 178.5,145.5 Z"/></g>
<g><path style="opacity:1" fill="#d6d6d6" d="M 185.5,136.5 C 187.912,136.694 188.912,138.027 188.5,140.5C 187.167,140.5 185.833,140.5 184.5,140.5C 184.433,139.041 184.766,137.708 185.5,136.5 Z"/></g>
<g><path style="opacity:1" fill="#f1f1f1" d="M 338.5,135.5 C 339.675,135.281 340.675,135.614 341.5,136.5C 339.948,137.798 338.948,137.465 338.5,135.5 Z"/></g>
<g><path style="opacity:1" fill="#199bd1" d="M 338.5,126.5 C 340.527,126.338 342.527,126.505 344.5,127C 344.957,127.414 345.291,127.914 345.5,128.5C 342.554,129.655 339.554,129.821 336.5,129C 337.381,128.292 338.047,127.458 338.5,126.5 Z"/></g>
<g><path style="opacity:1" fill="#e0e0e1" d="M 333.5,124.5 C 334.5,124.5 335.5,124.5 336.5,124.5C 335.754,128.31 334.754,128.31 333.5,124.5 Z"/></g>
<g><path style="opacity:1" fill="#d3d3d4" d="M 243.5,106.5 C 245.048,106.821 245.715,107.821 245.5,109.5C 242.752,109.598 242.086,108.598 243.5,106.5 Z"/></g>
<g><path style="opacity:1" fill="#17a1d9" d="M 297.5,181.5 C 297.5,177.167 297.5,172.833 297.5,168.5C 303.69,168.823 309.69,168.49 315.5,167.5C 315.334,160.825 315.5,154.158 316,147.5C 318.74,146.718 321.574,146.218 324.5,146C 324.957,145.586 325.291,145.086 325.5,144.5C 321.201,134.986 319.368,124.986 320,114.5C 316.093,100.927 307.259,92.4269 293.5,89C 271.631,85.3396 257.131,93.8396 250,114.5C 247.64,126.876 249.974,138.21 257,148.5C 258.351,150.019 259.851,151.352 261.5,152.5C 262.498,162.144 262.832,171.81 262.5,181.5C 260.5,181.5 258.5,181.5 256.5,181.5C 256.5,183.833 256.5,186.167 256.5,188.5C 251.821,188.666 247.155,188.499 242.5,188C 239.269,185.273 236.603,182.106 234.5,178.5C 238.459,177.34 242.459,177.173 246.5,178C 246.895,183.092 249.395,184.925 254,183.5C 254.72,181.888 254.554,180.388 253.5,179C 250.997,178.871 248.997,177.871 247.5,176C 242.136,175.829 236.802,175.329 231.5,174.5C 239.515,172.96 247.349,173.293 255,175.5C 258.439,174.944 259.272,173.111 257.5,170C 252.024,170.983 246.358,171.483 240.5,171.5C 236.651,171.499 232.984,171.165 229.5,170.5C 235.167,169.833 240.833,169.167 246.5,168.5C 249.023,167.241 251.523,165.907 254,164.5C 254.5,161 253,159.5 249.5,160C 248.167,162.333 246.833,164.667 245.5,167C 239.472,167.83 233.472,167.664 227.5,166.5C 227.291,165.914 226.957,165.414 226.5,165C 231.576,163.991 236.409,164.491 241,166.5C 244.942,165.119 245.442,162.952 242.5,160C 239.285,161.88 235.619,162.713 231.5,162.5C 229.5,162.167 227.5,161.833 225.5,161.5C 225.167,160.833 224.833,160.167 224.5,159.5C 233.045,159.12 241.378,157.954 249.5,156C 251.5,151.667 250.167,150 245.5,151C 244.833,152.667 244.167,154.333 243.5,156C 236.842,156.5 230.175,156.666 223.5,156.5C 223.425,153.794 223.092,151.127 222.5,148.5C 227.503,147.771 232.003,148.771 236,151.5C 240.731,148.852 240.565,146.519 235.5,144.5C 231.415,146.279 227.082,146.946 222.5,146.5C 222.5,144.167 222.5,141.833 222.5,139.5C 224.857,139.337 227.19,139.503 229.5,140C 233.388,141.68 237.221,143.514 241,145.5C 244.072,144.553 245.072,142.553 244,139.5C 243.275,138.941 242.442,138.608 241.5,138.5C 237.639,141.265 233.972,141.098 230.5,138C 227.854,137.503 225.187,137.336 222.5,137.5C 222.824,128.204 225.324,119.538 230,111.5C 231.822,109.955 233.989,109.288 236.5,109.5C 239.42,109.384 242.087,110.051 244.5,111.5C 247.517,110.62 248.184,108.786 246.5,106C 243.464,105.9 240.464,106.4 237.5,107.5C 236.167,107.167 234.833,106.833 233.5,106.5C 250.821,83.7797 273.488,75.613 301.5,82C 320.66,87.9929 334.326,100.16 342.5,118.5C 339.216,119.657 335.882,119.824 332.5,119C 331.751,117.266 331.251,115.433 331,113.5C 326.815,111.695 324.815,113.028 325,117.5C 330.529,121.103 336.696,122.437 343.5,121.5C 343.5,122.5 343.5,123.5 343.5,124.5C 340.568,124.716 337.902,124.049 335.5,122.5C 333.971,122.529 332.804,123.196 332,124.5C 331.884,126.655 332.217,128.655 333,130.5C 331.266,131.249 329.433,131.749 327.5,132C 325.666,136.675 327.333,138.508 332.5,137.5C 332.261,135.533 332.594,133.699 333.5,132C 337.821,131.501 342.154,131.334 346.5,131.5C 346.5,132.833 346.5,134.167 346.5,135.5C 344.253,135.085 342.086,134.418 340,133.5C 336.561,134.056 335.728,135.889 337.5,139C 338.333,139.167 339.167,139.333 340,139.5C 342.086,138.582 344.253,137.915 346.5,137.5C 346.608,142.87 346.275,148.203 345.5,153.5C 341.5,153.5 337.5,153.5 333.5,153.5C 334.493,148.325 332.493,146.491 327.5,148C 326.167,149.667 326.167,151.333 327.5,153C 333.065,154.595 338.732,155.761 344.5,156.5C 337.564,157.969 330.73,157.636 324,155.5C 320.561,156.056 319.728,157.889 321.5,161C 322.333,161.167 323.167,161.333 324,161.5C 330.396,159.376 336.896,159.042 343.5,160.5C 337.015,160.874 330.849,162.207 325,164.5C 324.377,169.344 326.377,170.678 331,168.5C 331.273,166.899 331.773,165.399 332.5,164C 335.882,163.176 339.216,163.343 342.5,164.5C 338.511,173.639 332.845,181.472 325.5,188C 317.841,188.5 310.174,188.666 302.5,188.5C 302.5,186.167 302.5,183.833 302.5,181.5C 300.833,181.5 299.167,181.5 297.5,181.5 Z"/></g>
<g><path style="opacity:1" fill="#e5e5e7" d="M 314.5,146.5 C 313.51,152.645 313.177,158.978 313.5,165.5C 307.31,165.177 301.31,165.51 295.5,166.5C 294.513,171.305 294.179,176.305 294.5,181.5C 284.5,181.5 274.5,181.5 264.5,181.5C 264.666,171.828 264.5,162.161 264,152.5C 252.369,141.596 248.369,128.263 252,112.5C 259.672,94.7435 273.172,87.5768 292.5,91C 312.912,96.6053 321.745,110.105 319,131.5C 320.949,135.629 322.116,139.963 322.5,144.5C 319.572,144.565 316.905,145.232 314.5,146.5 Z"/></g>
<g><path style="opacity:1" fill="#dadadb" d="M 239.5,140.5 C 240.5,140.5 241.5,140.5 242.5,140.5C 242.5,141.5 242.5,142.5 242.5,143.5C 241.5,143.5 240.5,143.5 239.5,143.5C 239.5,142.5 239.5,141.5 239.5,140.5 Z"/></g>
<g><path style="opacity:1" fill="#d6d7d7" d="M 328.5,133.5 C 331.957,133.667 332.29,134.667 329.5,136.5C 328.614,135.675 328.281,134.675 328.5,133.5 Z"/></g>
<g><path style="opacity:1" fill="#11191e" d="M 277.5,94.5 C 295.351,92.5359 307.518,99.8693 314,116.5C 316.744,133.517 310.244,145.351 294.5,152C 266.778,155.613 253.945,143.446 256,115.5C 259.776,104.889 266.943,97.8887 277.5,94.5 Z"/></g>
<g><path style="opacity:1" fill="#0396d2" d="M 266.5,136.5 C 263.941,136.802 261.607,136.468 259.5,135.5C 260.449,134.848 261.615,134.514 263,134.5C 264.681,134.608 265.848,135.275 266.5,136.5 Z"/></g>
<g><path style="opacity:1" fill="#0194d0" d="M 301.5,121.5 C 300.828,122.267 299.995,122.934 299,123.5C 298.26,124.749 298.427,125.749 299.5,126.5C 303.836,125.366 308.169,125.366 312.5,126.5C 306.963,126.791 301.796,128.124 297,130.5C 296.517,131.448 296.351,132.448 296.5,133.5C 297.833,133.5 299.167,133.5 300.5,133.5C 300.297,131.61 300.963,130.11 302.5,129C 305.817,128.502 309.15,128.335 312.5,128.5C 312.5,129.5 312.5,130.5 312.5,131.5C 309.14,131.384 305.807,131.051 302.5,130.5C 302.33,131.822 302.663,132.989 303.5,134C 305.379,134.063 307.213,133.563 309,132.5C 309.833,132.833 310.667,133.167 311.5,133.5C 304.487,148.34 292.82,154.173 276.5,151C 269.853,148.521 264.52,144.354 260.5,138.5C 262.045,137.548 263.712,137.215 265.5,137.5C 266.287,139.104 267.62,139.771 269.5,139.5C 267.181,135.145 268.514,133.145 273.5,133.5C 273.714,131.856 273.38,130.356 272.5,129C 271.551,128.383 270.718,128.549 270,129.5C 268.653,127.534 267.153,127.201 265.5,128.5C 262.833,128.5 260.167,128.5 257.5,128.5C 257.5,126.833 257.5,125.167 257.5,123.5C 260.579,123.26 263.579,123.593 266.5,124.5C 267.622,123.37 268.956,122.703 270.5,122.5C 271.209,123.404 272.209,123.737 273.5,123.5C 273.5,122.167 273.5,120.833 273.5,119.5C 268.349,118.061 263.016,117.061 257.5,116.5C 261.818,115.46 266.151,115.46 270.5,116.5C 270.671,113.203 270.005,112.869 268.5,115.5C 267.808,114.975 267.308,114.308 267,113.5C 264.205,114.783 261.372,114.783 258.5,113.5C 267.262,97.5215 280.262,92.6882 297.5,99C 301.431,101.132 304.764,103.965 307.5,107.5C 303.5,108.333 299.5,109.167 295.5,110C 294.269,111.183 294.269,112.349 295.5,113.5C 295.833,112.833 296.167,112.167 296.5,111.5C 297.192,112.025 297.692,112.692 298,113.5C 298.318,111.939 299.151,110.772 300.5,110C 306.299,107.977 309.965,109.81 311.5,115.5C 308.933,116.854 306.599,116.52 304.5,114.5C 301.833,116.167 301.833,117.833 304.5,119.5C 306.851,117.771 309.518,117.104 312.5,117.5C 312.5,118.5 312.5,119.5 312.5,120.5C 308.818,120.665 305.152,120.499 301.5,120C 301.207,116.906 299.541,115.406 296.5,115.5C 296.5,116.833 296.5,118.167 296.5,119.5C 298.514,119.392 300.18,120.058 301.5,121.5 Z"/></g>
<g><path style="opacity:1" fill="#12222b" d="M 285.5,106.5 C 284.883,106.611 284.383,106.944 284,107.5C 283.503,110.146 283.336,112.813 283.5,115.5C 284.5,115.5 285.5,115.5 286.5,115.5C 286.5,112.5 286.5,109.5 286.5,106.5C 288.385,104.947 289.385,102.947 289.5,100.5C 290.833,100.5 292.167,100.5 293.5,100.5C 293.671,103.797 293.005,104.131 291.5,101.5C 290.289,102.274 290.289,103.107 291.5,104C 290.069,104.465 288.903,105.299 288,106.5C 287.179,109.554 287.345,112.554 288.5,115.5C 288.891,111.152 290.557,107.485 293.5,104.5C 294.72,104.887 295.387,105.72 295.5,107C 294.623,108.867 293.123,110.034 291,110.5C 290.506,112.134 290.34,113.801 290.5,115.5C 292.359,115.461 293.692,116.294 294.5,118C 294.5,121.667 294.5,125.333 294.5,129C 292.044,131.367 291.211,134.2 292,137.5C 293.845,138.05 295.345,139.05 296.5,140.5C 295.38,142.596 293.88,142.93 292,141.5C 290.801,138.274 290.301,134.941 290.5,131.5C 289.5,131.5 288.5,131.5 287.5,131.5C 287.194,135.747 287.861,139.747 289.5,143.5C 287.335,143.884 285.668,143.217 284.5,141.5C 286.632,138.386 286.966,135.053 285.5,131.5C 284.686,133.766 284.186,136.1 284,138.5C 282.26,139.716 281.26,141.382 281,143.5C 278.323,145.066 276.99,144.4 277,141.5C 282.023,140.416 283.69,137.416 282,132.5C 280.456,134.468 279.289,136.635 278.5,139C 276.681,139.783 275.348,139.283 274.5,137.5C 275.655,136.05 277.155,135.05 279,134.5C 279.483,133.552 279.649,132.552 279.5,131.5C 277.641,131.539 276.308,130.706 275.5,129C 275.5,125.333 275.5,121.667 275.5,118C 277.956,115.633 278.789,112.8 278,109.5C 276.989,108.663 275.822,108.33 274.5,108.5C 274.5,107.167 274.5,105.833 274.5,104.5C 275.822,104.33 276.989,104.663 278,105.5C 279.691,108.607 280.858,111.941 281.5,115.5C 282.613,111.507 282.613,107.507 281.5,103.5C 282.833,103.5 284.167,103.5 285.5,103.5C 285.5,104.5 285.5,105.5 285.5,106.5 Z"/></g>
<g><path style="opacity:1" fill="#6b6d72" d="M 278.5,116.5 C 283.167,116.5 287.833,116.5 292.5,116.5C 292.5,121.167 292.5,125.833 292.5,130.5C 287.833,130.5 283.167,130.5 278.5,130.5C 278.5,125.833 278.5,121.167 278.5,116.5 Z"/></g>
<g><path style="opacity:1" fill="#103a4d" d="M 265.5,137.5 C 266.167,137.5 266.5,137.167 266.5,136.5C 265.848,135.275 264.681,134.608 263,134.5C 261.615,134.514 260.449,134.848 259.5,135.5C 258.596,134.791 258.263,133.791 258.5,132.5C 257.596,131.791 257.263,130.791 257.5,129.5C 260.385,129.806 263.052,129.473 265.5,128.5C 267.153,127.201 268.653,127.534 270,129.5C 270.718,128.549 271.551,128.383 272.5,129C 273.38,130.356 273.714,131.856 273.5,133.5C 268.514,133.145 267.181,135.145 269.5,139.5C 267.62,139.771 266.287,139.104 265.5,137.5 Z"/></g>
<g><path style="opacity:1" fill="#01a2e3" d="M 258.5,132.5 C 259.152,131.275 260.319,130.608 262,130.5C 264.778,131.099 267.278,131.433 269.5,131.5C 265.893,132.489 262.226,132.823 258.5,132.5 Z"/></g>
<g><path style="opacity:1" fill="#111212" d="M 279.5,118.5 C 283.167,118.5 286.833,118.5 290.5,118.5C 290.5,122.167 290.5,125.833 290.5,129.5C 286.833,129.5 283.167,129.5 279.5,129.5C 279.5,125.833 279.5,122.167 279.5,118.5 Z"/></g>
<g><path style="opacity:1" fill="#8e8e8f" d="M 281.5,119.5 C 281.5,122.167 281.5,124.833 281.5,127.5C 284.167,127.5 286.833,127.5 289.5,127.5C 286.713,128.477 283.713,128.81 280.5,128.5C 280.19,125.287 280.523,122.287 281.5,119.5 Z"/></g>
<g><path style="opacity:1" fill="#0082b6" d="M 312.5,122.5 C 311.306,123.777 309.64,124.444 307.5,124.5C 305.631,124.493 303.964,124.16 302.5,123.5C 305.625,122.521 308.958,122.187 312.5,122.5 Z"/></g>
<g><path style="opacity:1" fill="#0e4c68" d="M 301.5,121.5 C 305.371,121.185 309.038,121.518 312.5,122.5C 308.958,122.187 305.625,122.521 302.5,123.5C 301.5,124.5 300.5,125.5 299.5,126.5C 298.427,125.749 298.26,124.749 299,123.5C 299.995,122.934 300.828,122.267 301.5,121.5 Z"/></g>
<g><path style="opacity:1" fill="#e7e7e9" d="M 281.5,119.5 C 284.167,119.5 286.833,119.5 289.5,119.5C 289.5,122.167 289.5,124.833 289.5,127.5C 289.5,124.833 289.5,122.167 289.5,119.5C 286.833,119.5 284.167,119.5 281.5,119.5 Z"/></g>
<g><path style="opacity:1" fill="#058ec6" d="M 257.5,119.5 C 260.698,118.964 263.365,119.631 265.5,121.5C 262.302,122.036 259.635,121.369 257.5,119.5 Z"/></g>
<g><path style="opacity:1" fill="#0e5878" d="M 257.5,119.5 C 262.749,117.768 267.749,118.434 272.5,121.5C 272.043,122.298 271.376,122.631 270.5,122.5C 268.956,122.703 267.622,123.37 266.5,124.5C 263.579,123.593 260.579,123.26 257.5,123.5C 257.5,125.167 257.5,126.833 257.5,128.5C 256.539,126.735 256.205,124.735 256.5,122.5C 259.713,122.81 262.713,122.477 265.5,121.5C 263.365,119.631 260.698,118.964 257.5,119.5 Z"/></g>
<g><path style="opacity:1" fill="#dfe0e1" d="M 326.5,114.5 C 327.5,114.5 328.5,114.5 329.5,114.5C 328.754,118.31 327.754,118.31 326.5,114.5 Z"/></g>
<g><path style="opacity:1" fill="#076e99" d="M 285.5,106.5 C 285.833,106.5 286.167,106.5 286.5,106.5C 286.5,109.5 286.5,112.5 286.5,115.5C 285.5,115.5 284.5,115.5 283.5,115.5C 283.336,112.813 283.503,110.146 284,107.5C 284.383,106.944 284.883,106.611 285.5,106.5 Z"/></g>
<g><path style="opacity:1" fill="#d6d8d8" d="M 328.5,148.5 C 329.5,148.5 330.5,148.5 331.5,148.5C 331.5,149.5 331.5,150.5 331.5,151.5C 330.5,151.5 329.5,151.5 328.5,151.5C 328.5,150.5 328.5,149.5 328.5,148.5 Z"/></g>
<g><path style="opacity:1" fill="#9ec8ea" d="M 204.5,148.5 C 207.167,148.5 209.833,148.5 212.5,148.5C 213.778,163.01 218.778,176.01 227.5,187.5C 224.713,188.477 221.713,188.81 218.5,188.5C 210.47,176.414 205.804,163.081 204.5,148.5 Z"/></g>
<g><path style="opacity:1" fill="#191a1a" d="M 389.5,150.5 C 390.873,150.343 392.207,150.51 393.5,151C 384.596,157.812 384.262,164.979 392.5,172.5C 392,172.833 391.5,173.167 391,173.5C 381.718,166.456 381.218,158.79 389.5,150.5 Z"/></g>
<g><path style="opacity:1" fill="#1e1e1e" d="M 404.5,150.5 C 406.582,150.472 408.416,151.139 410,152.5C 414.296,158.223 414.629,164.223 411,170.5C 409.395,173.274 407.228,173.94 404.5,172.5C 410.569,168.128 412.069,162.461 409,155.5C 407.242,153.917 405.742,152.25 404.5,150.5 Z"/></g>
<g><path style="opacity:1" fill="#b2b3b4" d="M 246.5,151.5 C 249.861,152.203 250.194,153.537 247.5,155.5C 245.358,154.563 245.024,153.23 246.5,151.5 Z"/></g>
<g><path style="opacity:1" fill="#1f1f1f" d="M 391.5,155.5 C 395.241,154.599 397.241,155.932 397.5,159.5C 398.5,159.5 399.5,159.5 400.5,159.5C 400.5,158.167 400.5,156.833 400.5,155.5C 402.5,155.5 404.5,155.5 406.5,155.5C 406.5,156.5 406.5,157.5 406.5,158.5C 398.5,161.167 398.5,163.833 406.5,166.5C 406.5,167.5 406.5,168.5 406.5,169.5C 404.5,169.5 402.5,169.5 400.5,169.5C 400.884,167.335 400.217,165.668 398.5,164.5C 397.571,165.689 397.238,167.022 397.5,168.5C 395.076,168.808 392.743,168.474 390.5,167.5C 393.102,166.565 395.102,164.898 396.5,162.5C 394.976,160.142 392.976,158.309 390.5,157C 391.056,156.617 391.389,156.117 391.5,155.5 Z"/></g>
<g><path style="opacity:1" fill="#d9dada" d="M 322.5,157.5 C 325.957,157.667 326.29,158.667 323.5,160.5C 322.614,159.675 322.281,158.675 322.5,157.5 Z"/></g>
<g><path style="opacity:1" fill="#222223" d="M 175.5,161.5 C 183.507,161.334 191.507,161.5 199.5,162C 200.435,164.381 200.768,166.881 200.5,169.5C 199.5,169.5 198.5,169.5 197.5,169.5C 197.5,167.833 197.5,166.167 197.5,164.5C 191.824,164.334 186.157,164.501 180.5,165C 184.167,168.667 187.833,172.333 191.5,176C 188.536,179.966 185.203,183.633 181.5,187C 186.823,187.499 192.156,187.666 197.5,187.5C 197.5,185.833 197.5,184.167 197.5,182.5C 198.5,182.5 199.5,182.5 200.5,182.5C 200.5,185.167 200.5,187.833 200.5,190.5C 192.472,190.831 184.472,190.498 176.5,189.5C 179.791,184.873 183.458,180.54 187.5,176.5C 183.849,172.348 180.016,168.348 176,164.5C 175.517,163.552 175.351,162.552 175.5,161.5 Z"/></g>
<g><path style="opacity:1" fill="#dadbdb" d="M 239.5,161.5 C 240.5,161.5 241.5,161.5 242.5,161.5C 242.5,162.5 242.5,163.5 242.5,164.5C 241.5,164.5 240.5,164.5 239.5,164.5C 239.5,163.5 239.5,162.5 239.5,161.5 Z"/></g>
<g><path style="opacity:1" fill="#dbdddd" d="M 249.5,161.5 C 250.5,161.5 251.5,161.5 252.5,161.5C 252.5,162.5 252.5,163.5 252.5,164.5C 251.5,164.5 250.5,164.5 249.5,164.5C 249.5,163.5 249.5,162.5 249.5,161.5 Z"/></g>
<g><path style="opacity:1" fill="#87898c" d="M 314.5,146.5 C 314.5,153.167 314.5,159.833 314.5,166.5C 308.167,166.5 301.833,166.5 295.5,166.5C 301.31,165.51 307.31,165.177 313.5,165.5C 313.177,158.978 313.51,152.645 314.5,146.5 Z"/></g>
<g><path style="opacity:1" fill="#f5f5f5" d="M 326.5,165.5 C 327.675,165.281 328.675,165.614 329.5,166.5C 327.948,167.798 326.948,167.465 326.5,165.5 Z"/></g>
<g><path style="opacity:1" fill="#166484" d="M 315.5,167.5 C 309.69,168.49 303.69,168.823 297.5,168.5C 297.5,172.833 297.5,177.167 297.5,181.5C 296.514,177.03 296.181,172.363 296.5,167.5C 302.833,167.5 309.167,167.5 315.5,167.5 Z"/></g>
<g><path style="opacity:1" fill="#0f3d50" d="M 246.5,168.5 C 240.833,169.167 235.167,169.833 229.5,170.5C 228.957,170.44 228.624,170.107 228.5,169.5C 234.463,168.504 240.463,168.171 246.5,168.5 Z"/></g>
<g><path style="opacity:1" fill="#dcdddd" d="M 253.5,170.5 C 257.31,171.754 257.31,172.754 253.5,173.5C 253.5,172.5 253.5,171.5 253.5,170.5 Z"/></g>
<g><path style="opacity:1" fill="#0e1417" d="M 346.5,172.5 C 352.158,171.679 353.825,173.846 351.5,179C 345.244,179.934 343.577,177.767 346.5,172.5 Z"/></g>
<g><path style="opacity:1" fill="#189acf" d="M 347.5,173.5 C 350.956,174.536 351.29,176.203 348.5,178.5C 346.296,177.218 345.962,175.551 347.5,173.5 Z"/></g>
<g><path style="opacity:1" fill="#d7d9d9" d="M 250.5,179.5 C 252.048,179.821 252.715,180.821 252.5,182.5C 249.752,182.598 249.086,181.598 250.5,179.5 Z"/></g>
<g><path style="opacity:1" fill="#e1e1e1" d="M 361.5,181.5 C 362.5,181.5 363.5,181.5 364.5,181.5C 364.5,182.833 364.5,184.167 364.5,185.5C 363.167,185.5 361.833,185.5 360.5,185.5C 360.433,184.041 360.766,182.708 361.5,181.5 Z"/></g>
<g><path style="opacity:1" fill="#e7e7e9" d="M 258.5,183.5 C 272.5,183.5 286.5,183.5 300.5,183.5C 300.5,185.167 300.5,186.833 300.5,188.5C 286.5,188.5 272.5,188.5 258.5,188.5C 258.5,186.833 258.5,185.167 258.5,183.5 Z"/></g>
<g><path style="opacity:1" fill="#516576" d="M 227.5,187.5 C 228.043,187.56 228.376,187.893 228.5,188.5C 225.232,189.487 221.898,189.82 218.5,189.5C 218.5,189.167 218.5,188.833 218.5,188.5C 221.713,188.81 224.713,188.477 227.5,187.5 Z"/></g>
<g><path style="opacity:1" fill="#526677" d="M 239.5,187.5 C 240.043,187.56 240.376,187.893 240.5,188.5C 237.355,189.803 234.355,189.803 231.5,188.5C 234.385,188.806 237.052,188.473 239.5,187.5 Z"/></g>
<g><path style="opacity:1" fill="#596773" d="M 342.5,187.5 C 345.287,188.477 348.287,188.81 351.5,188.5C 353.167,188.5 354.833,188.5 356.5,188.5C 351.652,189.814 346.652,189.814 341.5,188.5C 341.624,187.893 341.957,187.56 342.5,187.5 Z"/></g>
<g><path style="opacity:1" fill="#9ec8ea" d="M 219.5,191.5 C 222.976,190.357 226.642,190.19 230.5,191C 236.452,197.123 243.119,202.289 250.5,206.5C 251.833,205.833 251.833,205.167 250.5,204.5C 244.293,200.894 238.627,196.561 233.5,191.5C 235.167,191.167 236.833,190.833 238.5,190.5C 244.662,192.117 250.328,194.95 255.5,199C 280.398,209.796 303.731,207.13 325.5,191C 329.211,190.175 332.878,190.341 336.5,191.5C 332.294,195.87 327.628,199.703 322.5,203C 303.205,213.78 282.872,216.446 261.5,211C 291.463,220.009 317.463,213.342 339.5,191C 345.491,190.501 351.491,190.334 357.5,190.5C 355.031,191.317 352.365,191.817 349.5,192C 327.007,218.388 298.673,228.054 264.5,221C 253.395,218.114 243.395,213.114 234.5,206C 229.584,200.915 224.584,196.081 219.5,191.5 Z"/></g>
<g><path style="opacity:1" fill="#186d91" d="M 320.5,192.5 C 296.5,191.167 272.5,191.167 248.5,192.5C 247.711,192.217 247.044,191.717 246.5,191C 271.833,190.333 297.167,190.333 322.5,191C 321.956,191.717 321.289,192.217 320.5,192.5 Z"/></g>
<g><path style="opacity:1" fill="#17a3dd" d="M 248.5,192.5 C 272.5,191.167 296.5,191.167 320.5,192.5C 301.267,204.506 280.934,206.673 259.5,199C 255.806,196.822 252.139,194.655 248.5,192.5 Z"/></g>
<g><path style="opacity:1" fill="#c5c5c5" d="M 210.5,194.5 C 214.161,194.35 215.161,195.85 213.5,199C 209.707,199.487 208.707,197.987 210.5,194.5 Z"/></g>
<g><path style="opacity:1" fill="#151c21" d="M 255.5,204.5 C 260.262,205.092 261.596,207.592 259.5,212C 252.17,212.486 250.837,209.986 255.5,204.5 Z"/></g>
<g><path style="opacity:1" fill="#199acf" d="M 255.5,206.5 C 256.5,206.5 257.5,206.5 258.5,206.5C 258.5,207.833 258.5,209.167 258.5,210.5C 257.167,210.5 255.833,210.5 254.5,210.5C 254.433,209.041 254.766,207.708 255.5,206.5 Z"/></g>
</svg>
