<?xml version="1.0" encoding="UTF-8" standalone="no"?>
<svg xmlns="http://www.w3.org/2000/svg" version="1.1" height="770.87" width="986.01" viewBox="0 0 986.01 770.87">
 <polygon stroke="#000" points="46.296,571.52,5.296,341.52,128.3,172.52,450.3,5.524,795.3,152.52,970.3,350.52,798.3,574.52,693.3,642.52,445.3,699.52,179.3,637.52" stroke-width="10" fill="none"/>
 <polyline stroke="#000" points="450.3,5.524,383.3,284.52,541.3,427.52,445.3,699.52" stroke-width="10" fill="none"/>
 <polyline stroke="#000" points="128.3,172.52,383.3,284.52,795.3,152.52" stroke-width="10" fill="none"/>
 <polyline stroke="#000" points="5.296,341.52,165.3,456.52,541.3,427.52,798.3,574.52" stroke-width="10" fill="none"/>
 <polyline stroke="#000" points="46.296,571.52,165.3,456.52,383.3,284.52" stroke-width="10" fill="none"/>
 <polyline stroke="#000" points="179.3,637.52,541.3,427.52,970.3,350.52" stroke-width="10" fill="none"/>
 <line stroke-width="5" y2="156.57" y1="253.52" stroke="#000" x2="719.64" x1="401.8" fill="none"/>
 <polygon points="715.97,168.32,749.3,147.53,710.04,148.87"/>
 <line stroke-width="5" y2="309.7" y1="409.52" stroke="#000" x2="438.84" x1="555.3" fill="none"/>
 <polygon points="450.72,306.5,415.3,289.52,437.49,321.94"/>
 <line stroke-width="5" y2="452.15" y1="544.52" stroke="#000" x2="625.64" x1="798.3" fill="none"/>
 <polygon points="636.55,446.46,598.3,437.52,626.96,464.39"/>
 <line stroke-width="5" y2="586.27" y1="618.52" stroke="#000" x2="736.99" x1="685.3" fill="none"/>
 <polygon points="736.49,598.57,763.3,569.86,725.72,581.32"/>
 <line stroke-width="5" y2="632.35" y1="669.52" stroke="#000" x2="641.05" x1="476.3" fill="none"/>
 <polygon points="636.52,643.79,671.3,625.53,632.05,623.96"/>
 <text style="text-anchor:end;" font-family="Helvetica,Arial,Liberation Sans,sans-serif" font-size="41px" font-weight="bold">
  <tspan y="721.19092" x="335.95389">Starting</tspan>
  <tspan y="770.39093" x="335.95389">vertex</tspan>
 </text>
 <text style="text-anchor:end;" font-family="Helvetica,Arial,Liberation Sans,sans-serif" font-size="41px" font-weight="bold">
  <tspan y="69.503883" x="988.78864">Optimal</tspan>
  <tspan y="118.70389" x="988.78864">solution</tspan>
 </text>
 <polyline stroke="#000" points="360.63,765.52,450.63,765.52,450.63,747.2" stroke-width="5" fill="none"/>
 <polygon points="460.8,754.13,450.64,716.19,440.46,754.13"/>
 <polyline stroke="#000" points="955.63,133.19,955.63,150.19,854.11,150.19" stroke-width="5" fill="none"/>
 <polygon points="861.05,140.02,823.1,150.18,861.05,160.36"/>
</svg>
