<?xml version="1.0" encoding="UTF-8"?>
<!DOCTYPE svg PUBLIC "-//W3C//DTD SVG 1.1//EN" "http://www.w3.org/Graphics/SVG/1.1/DTD/svg11.dtd">
<svg xmlns="http://www.w3.org/2000/svg" version="1.1" width="280px" height="280px" style="shape-rendering:geometricPrecision; text-rendering:geometricPrecision; image-rendering:optimizeQuality; fill-rule:evenodd; clip-rule:evenodd" xmlns:xlink="http://www.w3.org/1999/xlink">
<g><path style="opacity:0.998" fill="#c31713" d="M 125.5,-0.5 C 127.833,-0.5 130.167,-0.5 132.5,-0.5C 155.987,4.47355 179.654,9.14021 203.5,13.5C 203.657,14.8734 203.49,16.2068 203,17.5C 189.225,46.9714 175.725,76.638 162.5,106.5C 161.833,106.833 161.167,107.167 160.5,107.5C 115.879,93.5712 71.2126,79.7379 26.5,66C 26.0426,65.586 25.7093,65.086 25.5,64.5C 58.865,42.8216 92.1984,21.155 125.5,-0.5 Z"/></g>
<g><path style="opacity:0.998" fill="#c31713" d="M 210.5,21.5 C 233.427,84.4921 255.76,147.825 277.5,211.5C 257.668,232.832 237.168,253.499 216,273.5C 199.873,220.284 184.04,166.951 168.5,113.5C 182.511,82.8123 196.511,52.1456 210.5,21.5 Z"/></g>
<g><path style="opacity:0.998" fill="#ea3323" d="M -0.5,204.5 C -0.5,202.167 -0.5,199.833 -0.5,197.5C 5.63417,160.353 11.4675,123.02 17,85.5C 17.5337,80.9225 18.7003,76.5892 20.5,72.5C 66.7208,87.2954 113.054,101.795 159.5,116C 176.079,168.902 191.745,222.069 206.5,275.5C 137.414,252.027 68.4144,228.361 -0.5,204.5 Z"/></g>
</svg>
