<?xml version="1.0" encoding="UTF-8"?>
<!DOCTYPE svg PUBLIC "-//W3C//DTD SVG 1.1//EN" "http://www.w3.org/Graphics/SVG/1.1/DTD/svg11.dtd">
<svg xmlns="http://www.w3.org/2000/svg" version="1.1" width="76" height="76" viewBox="0 0 130 130" style="shape-rendering:geometricPrecision; text-rendering:geometricPrecision; image-rendering:optimizeQuality; fill-rule:evenodd; clip-rule:evenodd" xmlns:xlink="http://www.w3.org/1999/xlink">
<g><path style="opacity:0.004" fill="#fefffe" d="M 67.5,5.5 C 68.8333,6.16667 68.8333,6.16667 67.5,5.5 Z"/></g>
<g><path style="opacity:1" fill="#f1b532" d="M 58.5,2.5 C 58.8333,2.5 59.1667,2.5 59.5,2.5C 59.2291,4.3797 59.8958,5.71304 61.5,6.5C 74.7683,30.038 87.7683,53.7046 100.5,77.5C 100.506,80.5176 101.506,83.1843 103.5,85.5C 73.8333,86.8333 44.1667,86.8333 14.5,85.5C 20.0682,75.6969 25.0682,65.6969 29.5,55.5C 38.5,38.8333 47.5,22.1667 56.5,5.5C 57.4013,4.70951 58.0679,3.70951 58.5,2.5 Z"/></g>
<g><path style="opacity:1" fill="#239c5c" d="M 56.5,5.5 C 47.5,22.1667 38.5,38.8333 29.5,55.5C 23.6761,64.4724 18.3428,73.8057 13.5,83.5C 12.8336,75.3402 12.5002,67.0068 12.5,58.5C 12.3598,49.4035 12.8598,40.4035 14,31.5C 28.0317,22.6395 42.1984,13.9729 56.5,5.5 Z"/></g>
<g><path style="opacity:1" fill="#577cba" d="M 61.5,6.5 C 75.144,14.3235 88.8106,22.1569 102.5,30C 103.211,31.2547 104.044,32.4214 105,33.5C 105.5,50.4967 105.667,67.4967 105.5,84.5C 104.079,81.9906 102.412,79.6572 100.5,77.5C 87.7683,53.7046 74.7683,30.038 61.5,6.5 Z"/></g>
<g><path style="opacity:0.004" fill="#fefffe" d="M 39.5,12.5 C 38.8333,11.1667 38.8333,11.1667 39.5,12.5 Z"/></g>
<g><path style="opacity:0.949" fill="#75b5ee" d="M 59.5,2.5 C 62.1667,3.83333 64.8333,5.16667 67.5,6.5C 72.5975,9.22056 77.5975,12.2206 82.5,15.5C 85.2718,17.3904 88.2718,19.057 91.5,20.5C 96.1234,23.4353 100.79,26.4353 105.5,29.5C 105.987,30.4734 106.487,31.4734 107,32.5C 107.829,51.0046 107.662,69.338 106.5,87.5C 105.89,86.609 105.557,85.609 105.5,84.5C 105.667,67.4967 105.5,50.4967 105,33.5C 104.044,32.4214 103.211,31.2547 102.5,30C 88.8106,22.1569 75.144,14.3235 61.5,6.5C 59.8958,5.71304 59.2291,4.3797 59.5,2.5 Z"/></g>
<g><path style="opacity:0.004" fill="#00fffe" d="M 82.5,14.5 C 83.8333,15.1667 83.8333,15.1667 82.5,14.5 Z"/></g>
<g><path style="opacity:0.004" fill="#fefffe" d="M 91.5,19.5 C 92.8333,20.1667 92.8333,20.1667 91.5,19.5 Z"/></g>
<g><path style="opacity:0.004" fill="#fefffe" d="M 24.5,21.5 C 23.8333,20.1667 23.8333,20.1667 24.5,21.5 Z"/></g>
<g><path style="opacity:0.004" fill="#fefffe" d="M 105.5,28.5 C 106.833,29.1667 106.833,29.1667 105.5,28.5 Z"/></g>
<g><path style="opacity:1" fill="#80c68b" d="M 58.5,2.5 C 58.0679,3.70951 57.4013,4.70951 56.5,5.5C 42.1984,13.9729 28.0317,22.6395 14,31.5C 12.8598,40.4035 12.3598,49.4035 12.5,58.5C 12.5002,67.0068 12.8336,75.3402 13.5,83.5C 12.8333,84.8333 12.1667,86.1667 11.5,87.5C 10.3377,68.6711 10.1711,49.6711 11,30.5C 15.1356,26.8563 19.6356,23.8563 24.5,21.5C 29.4149,18.3116 34.4149,15.3116 39.5,12.5C 45.8502,9.13788 52.1836,5.80455 58.5,2.5 Z"/></g>
<g><path style="opacity:1" fill="#eebc50" d="M 29.5,55.5 C 25.0682,65.6969 20.0682,75.6969 14.5,85.5C 44.1667,86.8333 73.8333,86.8333 103.5,85.5C 101.506,83.1843 100.506,80.5176 100.5,77.5C 102.412,79.6572 104.079,81.9906 105.5,84.5C 105.557,85.609 105.89,86.609 106.5,87.5C 106.672,88.4916 106.338,89.1583 105.5,89.5C 104.791,88.596 103.791,88.2627 102.5,88.5C 73.1667,88.5 43.8333,88.5 14.5,88.5C 13.5,88.5 12.5,88.5 11.5,88.5C 11.5,88.1667 11.5,87.8333 11.5,87.5C 12.1667,86.1667 12.8333,84.8333 13.5,83.5C 18.3428,73.8057 23.6761,64.4724 29.5,55.5 Z"/></g>
<g><path style="opacity:0.004" fill="#fefffe" d="M 17.5,93.5 C 16.8333,94.1667 16.8333,94.1667 17.5,93.5 Z"/></g>
<g><path style="opacity:0.004" fill="#fefffe" d="M 98.5,94.5 C 99.8333,95.1667 99.8333,95.1667 98.5,94.5 Z"/></g>
<g><path style="opacity:0.004" fill="#fefffe" d="M 32.5,102.5 C 31.8333,103.167 31.8333,103.167 32.5,102.5 Z"/></g>
<g><path style="opacity:1" fill="#e78381" d="M 11.5,88.5 C 12.5,88.5 13.5,88.5 14.5,88.5C 25.5928,95.0741 36.5928,101.907 47.5,109C 50.9597,111.065 54.6264,112.565 58.5,113.5C 62.4039,112.547 66.0706,111.047 69.5,109C 80.5641,102.142 91.5641,95.3083 102.5,88.5C 103.791,88.2627 104.791,88.596 105.5,89.5C 103.343,91.4121 101.009,93.0787 98.5,94.5C 90.2184,98.8031 82.2184,103.47 74.5,108.5C 70.655,110.923 66.655,113.09 62.5,115C 59.8333,115.667 57.1667,115.667 54.5,115C 47.2645,110.552 39.9311,106.385 32.5,102.5C 27.4149,99.6884 22.4149,96.6884 17.5,93.5C 15.5,91.8333 13.5,90.1667 11.5,88.5 Z"/></g>
<g><path style="opacity:1" fill="#d7473b" d="M 14.5,88.5 C 43.8333,88.5 73.1667,88.5 102.5,88.5C 91.5641,95.3083 80.5641,102.142 69.5,109C 66.0706,111.047 62.4039,112.547 58.5,113.5C 54.6264,112.565 50.9597,111.065 47.5,109C 36.5928,101.907 25.5928,95.0741 14.5,88.5 Z"/></g>
<g><path style="opacity:0.004" fill="#fefffe" d="M 74.5,108.5 C 75.8333,109.167 75.8333,109.167 74.5,108.5 Z"/></g>
</svg>
