<?xml version="1.0" encoding="UTF-8"?>
<!DOCTYPE svg PUBLIC "-//W3C//DTD SVG 1.1//EN" "http://www.w3.org/Graphics/SVG/1.1/DTD/svg11.dtd">
<svg xmlns="http://www.w3.org/2000/svg" version="1.1" width="76" height="76" viewBox="0 0 200 200" style="shape-rendering:geometricPrecision; text-rendering:geometricPrecision; image-rendering:optimizeQuality; fill-rule:evenodd; clip-rule:evenodd" xmlns:xlink="http://www.w3.org/1999/xlink">
<g><path style="opacity:0.968" fill="#eb7b31" d="M 84.5,4.5 C 80.3966,31.5862 77.0632,58.9196 74.5,86.5C 74.1667,86.5 73.8333,86.5 73.5,86.5C 61.2411,69.7289 48.7411,53.0622 36,36.5C 34.549,34.5359 32.7157,33.2026 30.5,32.5C 23.2678,21.9216 15.6011,11.5883 7.5,1.5C 9.5,1.16667 11.5,0.833333 13.5,0.5C 37.3331,1.66464 60.9998,2.99798 84.5,4.5 Z"/></g>
<g><path style="opacity:0.989" fill="#f4ba3a" d="M 84.5,4.5 C 100.062,23.2776 115.396,42.2776 130.5,61.5C 137.793,71.46 145.46,81.1266 153.5,90.5C 153.5,90.8333 153.5,91.1667 153.5,91.5C 152.078,91.7086 150.745,92.2086 149.5,93C 131.915,106.612 114.581,120.446 97.5,134.5C 95.5168,135.471 93.5168,136.471 91.5,137.5C 85.6321,120.563 79.9654,103.563 74.5,86.5C 77.0632,58.9196 80.3966,31.5862 84.5,4.5 Z"/></g>
<g><path style="opacity:0.873" fill="#d5562b" d="M -0.5,28.5 C 9.87008,29.5879 20.2034,30.9212 30.5,32.5C 32.7157,33.2026 34.549,34.5359 36,36.5C 48.7411,53.0622 61.2411,69.7289 73.5,86.5C 49.0985,67.425 24.4318,48.7584 -0.5,30.5C -0.5,29.8333 -0.5,29.1667 -0.5,28.5 Z"/></g>
<g><path style="opacity:0.939" fill="#14acea" d="M 162.5,55.5 C 159.351,64.4107 157.351,73.4107 156.5,82.5C 155.5,85.1667 154.5,87.8333 153.5,90.5C 145.46,81.1266 137.793,71.46 130.5,61.5C 141.054,59.0737 151.72,57.0737 162.5,55.5 Z"/></g>
<g><path style="opacity:0.861" fill="#ea1e26" d="M 162.5,55.5 C 170.172,64.8491 176.839,74.8491 182.5,85.5C 173.855,84.336 165.188,83.336 156.5,82.5C 157.351,73.4107 159.351,64.4107 162.5,55.5 Z"/></g>
<g><path style="opacity:0.93" fill="#2d388e" d="M 73.5,86.5 C 73.8333,86.5 74.1667,86.5 74.5,86.5C 79.9654,103.563 85.6321,120.563 91.5,137.5C 91.5,138.167 91.8333,138.5 92.5,138.5C 94.2675,141.751 94.9341,145.084 94.5,148.5C 82.344,157.745 70.0107,166.745 57.5,175.5C 57.1667,174.833 56.8333,174.167 56.5,173.5C 58.4267,164.201 60.0933,154.868 61.5,145.5C 62.1174,145.389 62.6174,145.056 63,144.5C 63.4955,142.527 63.6621,140.527 63.5,138.5C 66.4544,121.063 69.7877,103.729 73.5,86.5 Z"/></g>
<g><path style="opacity:0.857" fill="#18ade9" d="M 153.5,91.5 C 152.372,97.1819 150.705,102.682 148.5,108C 135.609,114.941 122.942,122.108 110.5,129.5C 106,130.649 101.667,132.315 97.5,134.5C 114.581,120.446 131.915,106.612 149.5,93C 150.745,92.2086 152.078,91.7086 153.5,91.5 Z"/></g>
<g><path style="opacity:0.841" fill="#b1d136" d="M 110.5,129.5 C 139.622,129.762 165.622,138.762 188.5,156.5C 188.5,161.833 188.5,167.167 188.5,172.5C 161.268,148.24 129.268,136.907 92.5,138.5C 91.8333,138.5 91.5,138.167 91.5,137.5C 93.5168,136.471 95.5168,135.471 97.5,134.5C 101.667,132.315 106,130.649 110.5,129.5 Z"/></g>
<g><path style="opacity:0.562" fill="#b1d135" d="M 63.5,138.5 C 63.6621,140.527 63.4955,142.527 63,144.5C 62.6174,145.056 62.1174,145.389 61.5,145.5C 44.5665,151.966 29.5665,161.466 16.5,174C 15.6683,174.688 15.0016,174.521 14.5,173.5C 27.8056,157.518 44.139,145.851 63.5,138.5 Z"/></g>
</svg>
